<?xml version="1.0" encoding="utf-8"?>
<!-- Generator: Adobe Illustrator 13.0.0, SVG Export Plug-In . SVG Version: 6.00 Build 14948)  -->
<!DOCTYPE svg PUBLIC "-//W3C//DTD SVG 1.1//EN" "http://www.w3.org/Graphics/SVG/1.1/DTD/svg11.dtd">
<svg version="1.1" xmlns="http://www.w3.org/2000/svg" xmlns:xlink="http://www.w3.org/1999/xlink" x="0px" y="0px"
	 width="314.174px" height="321.919px" viewBox="0 0 314.174 321.919" enable-background="new 0 0 314.174 321.919"
	 xml:space="preserve">
<g id="D_even">
	<defs>
		<path id="SVGID_1_" d="M314.174,215.619h-61.417v-2.361h61.417V215.619z M314.174,208.533h-61.417v2.361h61.417V208.533z
			 M314.174,222.707h-61.417v2.361h61.417V222.707z M314.174,217.982h-61.417v2.361h61.417V217.982z M314.174,232.156h-61.417v2.361
			h61.417V232.156z M314.174,227.431h-61.417v2.361h61.417V227.431z M314.174,241.603h-61.417v2.361h61.417V241.603z
			 M314.174,236.878h-61.417v2.361h61.417V236.878z M314.174,251.052h-61.417v2.361h61.417V251.052z M314.174,246.328h-61.417v2.361
			h61.417V246.328z M314.174,260.501h-61.417v2.361h61.417V260.501z M314.174,255.777h-61.417v2.361h61.417V255.777z
			 M314.174,274.674h-61.417v-2.361h61.417V274.674z M314.174,267.588h-61.417v2.361h61.417V267.588z M314.174,281.762h-61.417
			v2.361h61.417V281.762z M314.174,277.038h-61.417v2.361h61.417V277.038z M314.174,291.211h-61.417v2.361h61.417V291.211z
			 M314.174,286.487h-61.417v2.361h61.417V286.487z M314.174,300.659h-61.417v2.361h61.417V300.659z M314.174,295.934h-61.417v2.361
			h61.417V295.934z M314.174,310.108h-61.417v2.361h61.417V310.108z M314.174,305.383h-61.417v2.361h61.417V305.383z
			 M314.174,319.557h-61.417v2.361h61.417V319.557z M314.174,314.833h-61.417v2.361h61.417V314.833z"/>
	</defs>
	<clipPath id="SVGID_2_">
		<use xlink:href="#SVGID_1_"  overflow="visible"/>
	</clipPath>
	<rect x="255.119" y="206.172" clip-path="url(#SVGID_2_)" fill="#B4AED3" width="56.693" height="56.691"/>
	<g clip-path="url(#SVGID_2_)">
		<path fill="#FFFFFF" d="M304.621,234.735c0,3.927-0.897,7.443-2.691,10.55c-1.793,3.105-4.059,5.489-6.796,7.15
			c-2.058,1.246-4.314,2.114-6.769,2.605c-2.455,0.491-5.362,0.736-8.723,0.736h-14.868v-42.169h15.293
			c3.436,0,6.4,0.288,8.893,0.864s4.588,1.393,6.287,2.449c2.907,1.775,5.197,4.168,6.868,7.18
			C303.785,227.112,304.621,230.657,304.621,234.735z M293.377,234.65c0-2.775-0.505-5.149-1.515-7.123
			c-1.01-1.973-2.61-3.516-4.8-4.63c-1.114-0.548-2.251-0.921-3.413-1.118c-1.161-0.199-2.913-0.298-5.253-0.298h-2.747v26.395
			h2.747c2.586,0,4.484-0.118,5.692-0.354c1.208-0.235,2.388-0.665,3.54-1.288c1.982-1.133,3.436-2.647,4.361-4.546
			C292.915,239.791,293.377,237.444,293.377,234.65z"/>
	</g>
	<rect x="255.119" y="265.228" clip-path="url(#SVGID_2_)" fill="#B4AED3" width="56.693" height="56.691"/>
	<g clip-path="url(#SVGID_2_)">
		<path fill="#FFFFFF" d="M304.621,293.791c0,3.927-0.897,7.443-2.691,10.55c-1.793,3.105-4.059,5.489-6.796,7.15
			c-2.058,1.246-4.314,2.114-6.769,2.605c-2.455,0.491-5.362,0.736-8.723,0.736h-14.868v-42.169h15.293
			c3.436,0,6.4,0.288,8.893,0.863c2.492,0.576,4.588,1.393,6.287,2.45c2.907,1.774,5.197,4.168,6.868,7.18
			C303.785,286.167,304.621,289.712,304.621,293.791z M293.377,293.706c0-2.775-0.505-5.149-1.515-7.123
			c-1.01-1.973-2.61-3.516-4.8-4.63c-1.114-0.548-2.251-0.921-3.413-1.118c-1.161-0.199-2.913-0.298-5.253-0.298h-2.747v26.395
			h2.747c2.586,0,4.484-0.118,5.692-0.354c1.208-0.235,2.388-0.665,3.54-1.288c1.982-1.133,3.436-2.647,4.361-4.546
			C292.915,298.846,293.377,296.5,293.377,293.706z"/>
	</g>
</g>
<g id="C_even">
	<defs>
		<path id="SVGID_3_" d="M314.174,156.563h-61.417v-2.361h61.417V156.563z M314.174,149.477h-61.417v2.361h61.417V149.477z
			 M314.174,163.651h-61.417v2.361h61.417V163.651z M314.174,158.926h-61.417v2.361h61.417V158.926z M314.174,173.1h-61.417v2.361
			h61.417V173.1z M314.174,168.375h-61.417v2.361h61.417V168.375z M314.174,182.547h-61.417v2.361h61.417V182.547z M314.174,177.823
			h-61.417v2.361h61.417V177.823z M314.174,191.997h-61.417v2.361h61.417V191.997z M314.174,187.272h-61.417v2.361h61.417V187.272z
			 M314.174,201.446h-61.417v2.361h61.417V201.446z M314.174,196.721h-61.417v2.361h61.417V196.721z"/>
	</defs>
	<clipPath id="SVGID_4_">
		<use xlink:href="#SVGID_3_"  overflow="visible"/>
	</clipPath>
	<rect x="255.119" y="147.117" clip-path="url(#SVGID_4_)" fill="#CAD69C" width="56.693" height="56.691"/>
	<g clip-path="url(#SVGID_4_)">
		<path fill="#FFFFFF" d="M286.92,197.542c-3.134,0-6.028-0.463-8.68-1.388c-2.653-0.925-4.933-2.304-6.839-4.135
			c-1.907-1.831-3.384-4.116-4.432-6.854s-1.572-5.9-1.572-9.487c0-3.342,0.5-6.372,1.501-9.091c1-2.719,2.454-5.051,4.361-6.995
			c1.831-1.869,4.102-3.313,6.811-4.333c2.709-1.02,5.668-1.529,8.878-1.529c1.774,0,3.375,0.099,4.8,0.298
			c1.425,0.197,2.742,0.457,3.951,0.778c1.265,0.358,2.412,0.761,3.441,1.204c1.029,0.443,1.93,0.854,2.705,1.231v10.224H300.6
			c-0.529-0.45-1.195-0.986-1.997-1.605c-0.803-0.62-1.713-1.231-2.733-1.832c-1.039-0.602-2.162-1.108-3.37-1.521
			c-1.208-0.413-2.502-0.62-3.88-0.62c-1.529,0-2.983,0.24-4.361,0.721c-1.378,0.48-2.653,1.276-3.823,2.389
			c-1.114,1.073-2.016,2.496-2.705,4.268c-0.689,1.771-1.034,3.918-1.034,6.443c0,2.638,0.373,4.843,1.119,6.613
			c0.746,1.771,1.685,3.166,2.818,4.183c1.151,1.036,2.436,1.776,3.852,2.219s2.813,0.664,4.191,0.664
			c1.321,0,2.629-0.197,3.922-0.592c1.293-0.395,2.487-0.93,3.583-1.606c0.925-0.544,1.784-1.126,2.577-1.746
			s1.444-1.155,1.955-1.606h1.133v10.082c-1.059,0.472-2.068,0.916-3.031,1.331s-1.973,0.774-3.03,1.076
			c-1.378,0.396-2.672,0.698-3.88,0.906C290.696,197.439,289.035,197.542,286.92,197.542z"/>
	</g>
</g>
<g id="B_even">
	<defs>
		<path id="SVGID_5_" d="M314.174,97.507h-61.417v-2.361h61.417V97.507z M314.174,90.421h-61.417v2.361h61.417V90.421z
			 M314.174,104.595h-61.417v2.361h61.417V104.595z M314.174,99.871h-61.417v2.361h61.417V99.871z M314.174,114.044h-61.417v2.361
			h61.417V114.044z M314.174,109.32h-61.417v2.361h61.417V109.32z M314.174,123.492h-61.417v2.361h61.417V123.492z M314.174,118.767
			h-61.417v2.361h61.417V118.767z M314.174,132.941h-61.417v2.361h61.417V132.941z M314.174,128.216h-61.417v2.361h61.417V128.216z
			 M314.174,142.39h-61.417v2.361h61.417V142.39z M314.174,137.666h-61.417v2.361h61.417V137.666z"/>
	</defs>
	<clipPath id="SVGID_6_">
		<use xlink:href="#SVGID_5_"  overflow="visible"/>
	</clipPath>
	<rect x="255.119" y="88.06" clip-path="url(#SVGID_6_)" fill="#6C88B9" width="56.693" height="56.693"/>
	<g clip-path="url(#SVGID_6_)">
		<path fill="#FFFFFF" d="M302.836,124.751c0,2.039-0.41,3.861-1.231,5.466s-1.95,2.936-3.384,3.993
			c-1.662,1.246-3.488,2.134-5.48,2.662c-1.992,0.528-4.517,0.793-7.576,0.793h-18.408V95.497h16.369
			c3.398,0,5.886,0.113,7.462,0.34c1.576,0.227,3.139,0.728,4.687,1.501c1.604,0.812,2.799,1.902,3.583,3.271
			c0.783,1.369,1.175,2.931,1.175,4.687c0,2.039-0.538,3.837-1.614,5.396c-1.076,1.557-2.596,2.771-4.56,3.639v0.227
			c2.756,0.548,4.942,1.681,6.556,3.398S302.836,121.938,302.836,124.751z M288.903,107.419c0-0.698-0.175-1.397-0.524-2.096
			c-0.35-0.698-0.968-1.218-1.855-1.558c-0.793-0.302-1.78-0.468-2.959-0.495c-1.18-0.029-2.837-0.043-4.97-0.043h-1.02v8.921h1.699
			c1.718,0,3.181-0.028,4.39-0.085c1.208-0.057,2.162-0.245,2.86-0.566c0.981-0.435,1.624-0.996,1.926-1.686
			C288.751,109.124,288.903,108.326,288.903,107.419z M291.537,124.582c0-1.341-0.259-2.374-0.777-3.102
			c-0.519-0.727-1.399-1.27-2.643-1.628c-0.848-0.245-2.016-0.378-3.504-0.396s-3.043-0.028-4.664-0.028h-2.374v10.507h0.791
			c3.053,0,5.238-0.01,6.557-0.028s2.534-0.265,3.646-0.736c1.13-0.472,1.908-1.1,2.332-1.883
			C291.325,126.502,291.537,125.601,291.537,124.582z"/>
	</g>
</g>
<g id="A_even">
	<defs>
		<path id="SVGID_7_" d="M314.174,38.453h-61.417v-2.361h61.417V38.453z M314.174,31.367h-61.417v2.361h61.417V31.367z
			 M314.174,45.541h-61.417v2.361h61.417V45.541z M314.174,40.816h-61.417v2.361h61.417V40.816z M314.174,54.99h-61.417v2.361
			h61.417V54.99z M314.174,50.265h-61.417v2.361h61.417V50.265z M314.174,64.437h-61.417v2.361h61.417V64.437z M314.174,59.712
			h-61.417v2.361h61.417V59.712z M314.174,73.886h-61.417v2.361h61.417V73.886z M314.174,69.162h-61.417v2.361h61.417V69.162z
			 M314.174,83.335h-61.417v2.361h61.417V83.335z M314.174,78.611h-61.417v2.361h61.417V78.611z"/>
	</defs>
	<clipPath id="SVGID_8_">
		<use xlink:href="#SVGID_7_"  overflow="visible"/>
	</clipPath>
	<rect x="255.119" y="29.005" clip-path="url(#SVGID_8_)" fill="#DFA8A7" width="56.693" height="56.694"/>
	<g clip-path="url(#SVGID_8_)">
		<path fill="#FFFFFF" d="M305.301,78.611h-11.231l-2.937-8.524h-15.605l-2.938,8.524H261.63l15.576-42.169h12.518L305.301,78.611z
			 M288.518,62.355l-5.188-15.107l-5.189,15.107H288.518z"/>
	</g>
</g>
<g id="D_odd">
	<defs>
		<path id="SVGID_9_" d="M314.174,272.313h-61.417v-2.361h61.417V272.313z M314.174,265.227h-61.417v2.361h61.417V265.227z
			 M314.174,279.401h-61.417v2.361h61.417V279.401z M314.174,274.676h-61.417v2.361h61.417V274.676z M314.174,288.85h-61.417v2.361
			h61.417V288.85z M314.174,284.125h-61.417v2.361h61.417V284.125z M314.174,298.297h-61.417v2.361h61.417V298.297z
			 M314.174,293.573h-61.417v2.361h61.417V293.573z M314.174,307.747h-61.417v2.361h61.417V307.747z M314.174,303.022h-61.417v2.361
			h61.417V303.022z M314.174,317.196h-61.417v2.361h61.417V317.196z M314.174,312.471h-61.417v2.361h61.417V312.471z"/>
	</defs>
	<clipPath id="SVGID_10_">
		<use xlink:href="#SVGID_9_"  overflow="visible"/>
	</clipPath>
	<rect x="255.119" y="265.226" clip-path="url(#SVGID_10_)" fill="#B4AED3" width="56.693" height="56.692"/>
	<g clip-path="url(#SVGID_10_)">
		<path fill="#FFFFFF" d="M304.621,293.79c0,3.927-0.897,7.443-2.691,10.55c-1.793,3.105-4.059,5.489-6.796,7.15
			c-2.058,1.246-4.314,2.114-6.769,2.605c-2.455,0.491-5.362,0.736-8.723,0.736h-14.868v-42.169h15.293
			c3.436,0,6.4,0.288,8.893,0.864s4.588,1.393,6.287,2.449c2.907,1.775,5.197,4.168,6.868,7.18
			C303.785,286.167,304.621,289.711,304.621,293.79z M293.377,293.705c0-2.775-0.505-5.149-1.515-7.123
			c-1.01-1.973-2.61-3.516-4.8-4.63c-1.114-0.548-2.251-0.921-3.413-1.118c-1.161-0.199-2.913-0.298-5.253-0.298h-2.747v26.395
			h2.747c2.586,0,4.484-0.118,5.692-0.354c1.208-0.235,2.388-0.665,3.54-1.288c1.982-1.133,3.436-2.647,4.361-4.546
			C292.915,298.845,293.377,296.499,293.377,293.705z"/>
	</g>
</g>
<g id="C_odd">
	<defs>
		<path id="SVGID_11_" d="M314.174,213.257h-61.417v-2.361h61.417V213.257z M314.174,206.171h-61.417v2.361h61.417V206.171z
			 M314.174,220.345h-61.417v2.361h61.417V220.345z M314.174,215.621h-61.417v2.361h61.417V215.621z M314.174,229.794h-61.417v2.361
			h61.417V229.794z M314.174,225.07h-61.417v2.361h61.417V225.07z M314.174,239.242h-61.417v2.361h61.417V239.242z M314.174,234.517
			h-61.417v2.361h61.417V234.517z M314.174,248.691h-61.417v2.361h61.417V248.691z M314.174,243.966h-61.417v2.361h61.417V243.966z
			 M314.174,258.14h-61.417v2.361h61.417V258.14z M314.174,253.416h-61.417v2.361h61.417V253.416z"/>
	</defs>
	<clipPath id="SVGID_12_">
		<use xlink:href="#SVGID_11_"  overflow="visible"/>
	</clipPath>
	<rect x="255.119" y="206.171" clip-path="url(#SVGID_12_)" fill="#CAD69C" width="56.693" height="56.692"/>
	<g clip-path="url(#SVGID_12_)">
		<path fill="#FFFFFF" d="M286.92,256.598c-3.134,0-6.028-0.463-8.68-1.388c-2.653-0.925-4.933-2.304-6.839-4.135
			c-1.907-1.831-3.384-4.116-4.432-6.854s-1.572-5.9-1.572-9.487c0-3.342,0.5-6.372,1.501-9.091c1-2.719,2.454-5.051,4.361-6.995
			c1.831-1.869,4.102-3.313,6.811-4.333c2.709-1.02,5.668-1.529,8.878-1.529c1.774,0,3.375,0.1,4.8,0.297
			c1.425,0.199,2.742,0.459,3.951,0.779c1.265,0.359,2.412,0.76,3.441,1.203c1.029,0.444,1.93,0.855,2.705,1.232v10.224H300.6
			c-0.529-0.45-1.195-0.986-1.997-1.605c-0.803-0.62-1.713-1.231-2.733-1.832c-1.039-0.602-2.162-1.108-3.37-1.521
			c-1.208-0.413-2.502-0.62-3.88-0.62c-1.529,0-2.983,0.24-4.361,0.721c-1.378,0.48-2.653,1.276-3.823,2.389
			c-1.114,1.073-2.016,2.496-2.705,4.268c-0.689,1.771-1.034,3.918-1.034,6.443c0,2.638,0.373,4.843,1.119,6.613
			c0.746,1.771,1.685,3.166,2.818,4.183c1.151,1.036,2.436,1.776,3.852,2.219s2.813,0.664,4.191,0.664
			c1.321,0,2.629-0.197,3.922-0.592c1.293-0.395,2.487-0.93,3.583-1.606c0.925-0.544,1.784-1.126,2.577-1.746
			s1.444-1.155,1.955-1.606h1.133v10.082c-1.059,0.472-2.068,0.916-3.031,1.331s-1.973,0.774-3.03,1.076
			c-1.378,0.396-2.672,0.698-3.88,0.906C290.696,256.495,289.035,256.598,286.92,256.598z"/>
	</g>
</g>
<g id="B_odd">
	<defs>
		<path id="SVGID_13_" d="M314.174,95.146h-61.417v-2.361h61.417V95.146z M314.174,88.06h-61.417v2.361h61.417V88.06z
			 M314.174,102.234h-61.417v2.361h61.417V102.234z M314.174,97.509h-61.417v2.361h61.417V97.509z M314.174,111.683h-61.417v2.361
			h61.417V111.683z M314.174,106.958h-61.417v2.361h61.417V106.958z M314.174,121.13h-61.417v2.361h61.417V121.13z M314.174,116.406
			h-61.417v2.361h61.417V116.406z M314.174,130.58h-61.417v2.361h61.417V130.58z M314.174,125.855h-61.417v2.361h61.417V125.855z
			 M314.174,140.029h-61.417v2.361h61.417V140.029z M314.174,135.304h-61.417v2.361h61.417V135.304z M314.174,154.202h-61.417
			v-2.361h61.417V154.202z M314.174,147.116h-61.417v2.361h61.417V147.116z M314.174,161.29h-61.417v2.361h61.417V161.29z
			 M314.174,156.565h-61.417v2.361h61.417V156.565z M314.174,170.739h-61.417v2.361h61.417V170.739z M314.174,166.014h-61.417v2.361
			h61.417V166.014z M314.174,180.186h-61.417v2.361h61.417V180.186z M314.174,175.461h-61.417v2.361h61.417V175.461z
			 M314.174,189.635h-61.417v2.361h61.417V189.635z M314.174,184.911h-61.417v2.361h61.417V184.911z M314.174,199.084h-61.417v2.361
			h61.417V199.084z M314.174,194.36h-61.417v2.361h61.417V194.36z"/>
	</defs>
	<clipPath id="SVGID_14_">
		<use xlink:href="#SVGID_13_"  overflow="visible"/>
	</clipPath>
	<rect x="255.119" y="88.06" clip-path="url(#SVGID_14_)" fill="#6C88B9" width="56.693" height="56.692"/>
	<g clip-path="url(#SVGID_14_)">
		<path fill="#FFFFFF" d="M302.836,124.751c0,2.039-0.41,3.861-1.231,5.466s-1.95,2.936-3.384,3.993
			c-1.662,1.246-3.488,2.134-5.48,2.662c-1.992,0.528-4.517,0.793-7.576,0.793h-18.408V95.497h16.369
			c3.398,0,5.886,0.113,7.462,0.34c1.576,0.227,3.139,0.728,4.687,1.501c1.604,0.812,2.799,1.902,3.583,3.271
			c0.783,1.369,1.175,2.931,1.175,4.687c0,2.039-0.538,3.837-1.614,5.396c-1.076,1.557-2.596,2.771-4.56,3.639v0.227
			c2.756,0.548,4.942,1.681,6.556,3.398S302.836,121.938,302.836,124.751z M288.903,107.419c0-0.698-0.175-1.397-0.524-2.096
			c-0.35-0.698-0.968-1.218-1.855-1.558c-0.793-0.302-1.78-0.468-2.959-0.495c-1.18-0.029-2.837-0.043-4.97-0.043h-1.02v8.921h1.699
			c1.718,0,3.181-0.028,4.39-0.085c1.208-0.057,2.162-0.245,2.86-0.566c0.981-0.435,1.624-0.996,1.926-1.686
			C288.751,109.124,288.903,108.326,288.903,107.419z M291.537,124.582c0-1.341-0.259-2.374-0.777-3.102
			c-0.519-0.727-1.399-1.27-2.643-1.628c-0.848-0.245-2.016-0.378-3.504-0.396s-3.043-0.028-4.664-0.028h-2.374v10.507h0.791
			c3.053,0,5.238-0.01,6.557-0.028s2.534-0.265,3.646-0.736c1.13-0.472,1.908-1.1,2.332-1.883
			C291.325,126.502,291.537,125.601,291.537,124.582z"/>
	</g>
	<rect x="255.119" y="147.116" clip-path="url(#SVGID_14_)" fill="#6C88B9" width="56.693" height="56.692"/>
	<g clip-path="url(#SVGID_14_)">
		<path fill="#FFFFFF" d="M302.836,183.807c0,2.039-0.41,3.861-1.231,5.466s-1.95,2.936-3.384,3.993
			c-1.662,1.246-3.488,2.134-5.48,2.662c-1.992,0.528-4.517,0.793-7.576,0.793h-18.408v-42.169h16.369
			c3.398,0,5.886,0.113,7.462,0.34c1.576,0.227,3.139,0.727,4.687,1.501c1.604,0.812,2.799,1.902,3.583,3.271
			c0.783,1.369,1.175,2.932,1.175,4.688c0,2.039-0.538,3.837-1.614,5.396c-1.076,1.557-2.596,2.771-4.56,3.639v0.227
			c2.756,0.548,4.942,1.681,6.556,3.398S302.836,180.994,302.836,183.807z M288.903,166.475c0-0.698-0.175-1.397-0.524-2.096
			c-0.35-0.698-0.968-1.218-1.855-1.558c-0.793-0.302-1.78-0.468-2.959-0.495c-1.18-0.029-2.837-0.043-4.97-0.043h-1.02v8.921h1.699
			c1.718,0,3.181-0.028,4.39-0.085c1.208-0.057,2.162-0.245,2.86-0.566c0.981-0.435,1.624-0.996,1.926-1.686
			C288.751,168.179,288.903,167.381,288.903,166.475z M291.537,183.637c0-1.341-0.259-2.374-0.777-3.102
			c-0.519-0.727-1.399-1.27-2.643-1.628c-0.848-0.245-2.016-0.378-3.504-0.396s-3.043-0.028-4.664-0.028h-2.374v10.507h0.791
			c3.053,0,5.238-0.01,6.557-0.028s2.534-0.265,3.646-0.736c1.13-0.472,1.908-1.1,2.332-1.883
			C291.325,185.558,291.537,184.657,291.537,183.637z"/>
	</g>
</g>
<g id="A_odd">
	<defs>
		<path id="SVGID_15_" d="M314.174,36.091h-61.417V33.73h61.417V36.091z M314.174,29.005h-61.417v2.362h61.417V29.005z
			 M314.174,43.179h-61.417v2.361h61.417V43.179z M314.174,38.455h-61.417v2.361h61.417V38.455z M314.174,52.628h-61.417v2.361
			h61.417V52.628z M314.174,47.904h-61.417v2.361h61.417V47.904z M314.174,62.076h-61.417v2.361h61.417V62.076z M314.174,57.351
			h-61.417v2.361h61.417V57.351z M314.174,71.525h-61.417v2.361h61.417V71.525z M314.174,66.8h-61.417v2.361h61.417V66.8z
			 M314.174,80.974h-61.417v2.361h61.417V80.974z M314.174,76.25h-61.417v2.361h61.417V76.25z"/>
	</defs>
	<clipPath id="SVGID_16_">
		<use xlink:href="#SVGID_15_"  overflow="visible"/>
	</clipPath>
	<rect x="255.119" y="29.005" clip-path="url(#SVGID_16_)" fill="#DFA8A7" width="56.693" height="56.693"/>
	<g clip-path="url(#SVGID_16_)">
		<path fill="#FFFFFF" d="M305.301,78.611h-11.231l-2.937-8.524h-15.605l-2.938,8.524H261.63l15.576-42.169h12.518L305.301,78.611z
			 M288.518,62.355l-5.188-15.107l-5.189,15.107H288.518z"/>
	</g>
</g>
<g id="Layer_10">
	<rect x="170.079" y="206.173" fill="#B4AED3" width="56.693" height="56.691"/>
	<g>
		<path fill="#FFFFFF" d="M219.581,234.736c0,3.926-0.897,7.443-2.69,10.549c-1.794,3.105-4.06,5.49-6.797,7.15
			c-2.058,1.246-4.314,2.115-6.769,2.605c-2.455,0.492-5.362,0.736-8.723,0.736h-14.868v-42.168h15.293
			c3.436,0,6.4,0.287,8.893,0.863s4.588,1.393,6.287,2.449c2.907,1.775,5.197,4.168,6.868,7.18S219.581,230.658,219.581,234.736z
			 M208.338,234.65c0-2.775-0.505-5.148-1.515-7.123c-1.01-1.973-2.61-3.516-4.8-4.629c-1.114-0.549-2.251-0.922-3.413-1.119
			c-1.161-0.199-2.913-0.297-5.253-0.297h-2.747v26.395h2.747c2.586,0,4.484-0.119,5.692-0.355c1.208-0.234,2.388-0.664,3.54-1.287
			c1.982-1.133,3.436-2.648,4.361-4.547C207.875,239.791,208.338,237.445,208.338,234.65z"/>
	</g>
	<path d="M226.772,212.619h-56.693v-2.361h56.693V212.619z M226.772,205.533h-56.693v2.361h56.693V205.533z M226.772,219.707
		h-56.693v2.361h56.693V219.707z M226.772,214.982h-56.693v2.361h56.693V214.982z M226.772,229.156h-56.693v2.361h56.693V229.156z
		 M226.772,224.431h-56.693v2.361h56.693V224.431z M226.772,238.603h-56.693v2.361h56.693V238.603z M226.772,233.878h-56.693v2.361
		h56.693V233.878z M226.772,248.052h-56.693v2.361h56.693V248.052z M226.772,243.328h-56.693v2.361h56.693V243.328z
		 M226.772,257.501h-56.693v2.361h56.693V257.501z M226.772,252.777h-56.693v2.361h56.693V252.777z"/>
	<rect x="170.079" y="265.228" fill="#B4AED3" width="56.693" height="56.691"/>
	<g>
		<path fill="#FFFFFF" d="M219.581,293.791c0,3.928-0.897,7.443-2.69,10.551c-1.794,3.105-4.06,5.488-6.797,7.15
			c-2.058,1.246-4.314,2.113-6.769,2.605c-2.455,0.49-5.362,0.736-8.723,0.736h-14.868v-42.17h15.293c3.436,0,6.4,0.289,8.893,0.864
			c2.492,0.576,4.588,1.393,6.287,2.45c2.907,1.774,5.197,4.168,6.868,7.18C218.746,286.167,219.581,289.712,219.581,293.791z
			 M208.338,293.707c0-2.775-0.505-5.15-1.515-7.123c-1.01-1.973-2.61-3.516-4.8-4.631c-1.114-0.547-2.251-0.92-3.413-1.117
			c-1.161-0.199-2.913-0.299-5.253-0.299h-2.747v26.395h2.747c2.586,0,4.484-0.117,5.692-0.354c1.208-0.236,2.388-0.666,3.54-1.289
			c1.982-1.133,3.436-2.646,4.361-4.545C207.875,298.847,208.338,296.5,208.338,293.707z"/>
	</g>
	<path d="M226.772,271.675h-56.693v-2.361h56.693V271.675z M226.772,264.589h-56.693v2.361h56.693V264.589z M226.772,278.763
		h-56.693v2.361h56.693V278.763z M226.772,274.039h-56.693v2.361h56.693V274.039z M226.772,288.212h-56.693v2.361h56.693V288.212z
		 M226.772,283.488h-56.693v2.361h56.693V283.488z M226.772,297.66h-56.693v2.361h56.693V297.66z M226.772,292.935h-56.693v2.361
		h56.693V292.935z M226.772,307.109h-56.693v2.361h56.693V307.109z M226.772,302.384h-56.693v2.361h56.693V302.384z
		 M226.772,316.558h-56.693v2.361h56.693V316.558z M226.772,311.833h-56.693v2.361h56.693V311.833z"/>
	<rect x="170.079" y="147.117" fill="#CAD69C" width="56.693" height="56.691"/>
	<g>
		<path fill="#FFFFFF" d="M201.881,197.542c-3.134,0-6.028-0.463-8.68-1.387c-2.653-0.926-4.933-2.305-6.839-4.135
			c-1.907-1.832-3.384-4.117-4.432-6.854c-1.048-2.738-1.572-5.9-1.572-9.488c0-3.342,0.5-6.371,1.501-9.09
			c1-2.719,2.454-5.051,4.361-6.996c1.831-1.869,4.102-3.312,6.811-4.332c2.709-1.02,5.668-1.529,8.878-1.529
			c1.774,0,3.375,0.099,4.8,0.297c1.425,0.198,2.742,0.458,3.951,0.779c1.265,0.358,2.412,0.76,3.441,1.203
			c1.029,0.443,1.93,0.854,2.705,1.232v10.223h-1.246c-0.529-0.449-1.194-0.986-1.997-1.605c-0.803-0.619-1.713-1.23-2.733-1.832
			c-1.039-0.602-2.162-1.107-3.37-1.521c-1.208-0.412-2.502-0.619-3.88-0.619c-1.529,0-2.983,0.24-4.361,0.721
			c-1.378,0.48-2.653,1.275-3.823,2.389c-1.114,1.072-2.016,2.496-2.705,4.268c-0.689,1.77-1.034,3.918-1.034,6.443
			c0,2.637,0.373,4.842,1.119,6.613c0.746,1.771,1.685,3.166,2.818,4.182c1.151,1.037,2.436,1.777,3.852,2.219
			c1.416,0.443,2.813,0.664,4.191,0.664c1.321,0,2.629-0.197,3.922-0.592c1.293-0.395,2.487-0.93,3.583-1.605
			c0.925-0.545,1.784-1.127,2.577-1.746c0.793-0.621,1.444-1.156,1.954-1.607h1.133v10.082c-1.058,0.473-2.067,0.916-3.03,1.332
			c-0.963,0.414-1.973,0.773-3.03,1.076c-1.378,0.396-2.672,0.697-3.88,0.906C205.657,197.439,203.995,197.542,201.881,197.542z"/>
	</g>
	<path d="M226.772,153.564h-56.693v-2.361h56.693V153.564z M226.772,146.478h-56.693v2.361h56.693V146.478z M226.772,160.652
		h-56.693v2.361h56.693V160.652z M226.772,155.927h-56.693v2.361h56.693V155.927z M226.772,170.101h-56.693v2.361h56.693V170.101z
		 M226.772,165.376h-56.693v2.361h56.693V165.376z M226.772,179.548h-56.693v2.361h56.693V179.548z M226.772,174.824h-56.693v2.361
		h56.693V174.824z M226.772,188.998h-56.693v2.361h56.693V188.998z M226.772,184.273h-56.693v2.361h56.693V184.273z
		 M226.772,198.447h-56.693v2.361h56.693V198.447z M226.772,193.722h-56.693v2.361h56.693V193.722z"/>
	<rect x="170.079" y="88.062" fill="#6C88B9" width="56.693" height="56.693"/>
	<g>
		<path fill="#FFFFFF" d="M217.797,124.753c0,2.039-0.411,3.861-1.232,5.465c-0.821,1.605-1.95,2.936-3.384,3.994
			c-1.662,1.246-3.488,2.133-5.48,2.662c-1.992,0.527-4.517,0.793-7.576,0.793h-18.408v-42.17h16.369
			c3.398,0,5.886,0.113,7.462,0.34c1.576,0.227,3.139,0.728,4.687,1.502c1.604,0.812,2.799,1.902,3.583,3.271
			c0.783,1.369,1.175,2.931,1.175,4.687c0,2.039-0.538,3.838-1.614,5.396c-1.076,1.557-2.596,2.77-4.56,3.639v0.227
			c2.756,0.547,4.942,1.68,6.556,3.398C216.99,119.673,217.797,121.939,217.797,124.753z M203.863,107.421
			c0-0.699-0.175-1.398-0.524-2.096c-0.35-0.699-0.968-1.219-1.855-1.559c-0.793-0.301-1.78-0.467-2.959-0.494
			c-1.18-0.029-2.837-0.043-4.97-0.043h-1.02v8.92h1.699c1.718,0,3.181-0.027,4.39-0.084c1.208-0.057,2.162-0.246,2.86-0.566
			c0.981-0.436,1.624-0.996,1.926-1.686C203.712,109.125,203.863,108.328,203.863,107.421z M206.497,124.583
			c0-1.342-0.259-2.375-0.777-3.102c-0.519-0.727-1.399-1.27-2.643-1.629c-0.848-0.244-2.016-0.377-3.504-0.396
			c-1.489-0.018-3.043-0.027-4.664-0.027h-2.374v10.506h0.791c3.053,0,5.238-0.01,6.557-0.027c1.319-0.02,2.534-0.266,3.646-0.736
			c1.13-0.473,1.908-1.1,2.332-1.883C206.285,126.503,206.497,125.603,206.497,124.583z"/>
	</g>
	<path d="M226.772,94.509h-56.693v-2.361h56.693V94.509z M226.772,87.423h-56.693v2.361h56.693V87.423z M226.772,101.597h-56.693
		v2.361h56.693V101.597z M226.772,96.873h-56.693v2.361h56.693V96.873z M226.772,111.046h-56.693v2.361h56.693V111.046z
		 M226.772,106.322h-56.693v2.361h56.693V106.322z M226.772,120.494h-56.693v2.361h56.693V120.494z M226.772,115.769h-56.693v2.361
		h56.693V115.769z M226.772,129.943h-56.693v2.361h56.693V129.943z M226.772,125.218h-56.693v2.361h56.693V125.218z
		 M226.772,139.392h-56.693v2.361h56.693V139.392z M226.772,134.667h-56.693v2.361h56.693V134.667z"/>
	<rect x="170.079" y="29.006" fill="#DFA8A7" width="56.693" height="56.693"/>
	<g>
		<path fill="#FFFFFF" d="M220.261,78.611H209.03l-2.937-8.523h-15.605l-2.938,8.523h-10.959l15.576-42.168h12.518L220.261,78.611z
			 M203.479,62.355l-5.188-15.107l-5.189,15.107H203.479z"/>
	</g>
	<path d="M226.772,36.091h-56.693V33.73h56.693V36.091z M226.772,29.005h-56.693v2.362h56.693V29.005z M226.772,43.179h-56.693
		v2.361h56.693V43.179z M226.772,38.455h-56.693v2.361h56.693V38.455z M226.772,52.628h-56.693v2.361h56.693V52.628z
		 M226.772,47.904h-56.693v2.361h56.693V47.904z M226.772,62.076h-56.693v2.361h56.693V62.076z M226.772,57.351h-56.693v2.361
		h56.693V57.351z M226.772,71.525h-56.693v2.361h56.693V71.525z M226.772,66.8h-56.693v2.361h56.693V66.8z M226.772,80.974h-56.693
		v2.361h56.693V80.974z M226.772,76.25h-56.693v2.361h56.693V76.25z"/>
	<rect x="85.04" y="265.226" fill="#B4AED3" width="56.693" height="56.693"/>
	<g>
		<path fill="#FFFFFF" d="M134.542,293.791c0,3.926-0.897,7.443-2.69,10.549c-1.794,3.105-4.06,5.49-6.797,7.15
			c-2.058,1.246-4.314,2.115-6.769,2.605c-2.455,0.492-5.362,0.736-8.723,0.736H94.695v-42.168h15.293
			c3.436,0,6.4,0.287,8.893,0.863s4.588,1.393,6.287,2.449c2.907,1.775,5.197,4.168,6.868,7.18S134.542,289.712,134.542,293.791z
			 M123.298,293.705c0-2.775-0.505-5.148-1.515-7.123c-1.01-1.973-2.61-3.516-4.8-4.629c-1.114-0.549-2.251-0.922-3.413-1.119
			c-1.161-0.199-2.913-0.297-5.253-0.297h-2.747v26.395h2.747c2.586,0,4.484-0.119,5.692-0.355c1.208-0.234,2.388-0.664,3.54-1.287
			c1.982-1.133,3.436-2.648,4.361-4.547C122.835,298.845,123.298,296.5,123.298,293.705z"/>
	</g>
	<path d="M141.732,274.037H85.04v-2.361h56.693V274.037z M141.732,266.951H85.04v2.361h56.693V266.951z M141.732,281.125H85.04
		v2.361h56.693V281.125z M141.732,276.4H85.04v2.361h56.693V276.4z M141.732,290.574H85.04v2.361h56.693V290.574z M141.732,285.849
		H85.04v2.361h56.693V285.849z M141.732,300.021H85.04v2.361h56.693V300.021z M141.732,295.296H85.04v2.361h56.693V295.296z
		 M141.732,309.47H85.04v2.361h56.693V309.47z M141.732,304.746H85.04v2.361h56.693V304.746z M141.732,318.919H85.04v2.361h56.693
		V318.919z M141.732,314.195H85.04v2.361h56.693V314.195z"/>
	<rect x="85.04" y="206.171" fill="#CAD69C" width="56.693" height="56.693"/>
	<g>
		<path fill="#FFFFFF" d="M116.841,256.599c-3.134,0-6.028-0.463-8.68-1.389c-2.653-0.924-4.933-2.303-6.839-4.135
			c-1.907-1.83-3.384-4.115-4.432-6.854c-1.048-2.736-1.572-5.9-1.572-9.486c0-3.342,0.5-6.373,1.501-9.092
			c1-2.719,2.454-5.051,4.361-6.994c1.831-1.869,4.102-3.314,6.811-4.334c2.709-1.02,5.668-1.529,8.878-1.529
			c1.774,0,3.375,0.1,4.8,0.298c1.425,0.198,2.742,0.458,3.951,0.778c1.265,0.359,2.412,0.761,3.441,1.204
			c1.029,0.444,1.93,0.854,2.705,1.231v10.225h-1.246c-0.529-0.451-1.194-0.986-1.997-1.605c-0.803-0.621-1.713-1.232-2.733-1.832
			c-1.039-0.602-2.162-1.109-3.37-1.521c-1.208-0.414-2.502-0.621-3.88-0.621c-1.529,0-2.983,0.24-4.361,0.721
			c-1.378,0.48-2.653,1.277-3.823,2.389c-1.114,1.074-2.016,2.496-2.705,4.268c-0.689,1.771-1.034,3.918-1.034,6.443
			c0,2.639,0.373,4.844,1.119,6.613c0.746,1.771,1.685,3.166,2.818,4.184c1.151,1.035,2.436,1.775,3.852,2.219
			c1.416,0.441,2.813,0.664,4.191,0.664c1.321,0,2.629-0.197,3.922-0.592c1.293-0.395,2.487-0.93,3.583-1.607
			c0.925-0.543,1.784-1.125,2.577-1.746c0.793-0.619,1.444-1.154,1.954-1.605h1.133v10.082c-1.058,0.471-2.067,0.916-3.03,1.33
			c-0.963,0.416-1.973,0.775-3.03,1.076c-1.378,0.396-2.672,0.699-3.88,0.906C120.617,256.496,118.956,256.599,116.841,256.599z"/>
	</g>
	<path d="M141.732,214.982H85.04v-2.361h56.693V214.982z M141.732,207.896H85.04v2.361h56.693V207.896z M141.732,222.07H85.04v2.361
		h56.693V222.07z M141.732,217.345H85.04v2.361h56.693V217.345z M141.732,231.519H85.04v2.361h56.693V231.519z M141.732,226.794
		H85.04v2.361h56.693V226.794z M141.732,240.966H85.04v2.361h56.693V240.966z M141.732,236.242H85.04v2.361h56.693V236.242z
		 M141.732,250.416H85.04v2.361h56.693V250.416z M141.732,245.691H85.04v2.361h56.693V245.691z M141.732,259.865H85.04v2.361h56.693
		V259.865z M141.732,255.14H85.04v2.361h56.693V255.14z"/>
	<rect x="85.04" y="88.062" fill="#6C88B9" width="56.693" height="56.691"/>
	<g>
		<path fill="#FFFFFF" d="M132.757,124.753c0,2.039-0.411,3.861-1.232,5.465c-0.821,1.605-1.95,2.936-3.384,3.994
			c-1.662,1.246-3.488,2.133-5.48,2.662c-1.992,0.527-4.517,0.793-7.576,0.793H96.677v-42.17h16.369c3.398,0,5.886,0.113,7.462,0.34
			c1.576,0.227,3.139,0.728,4.687,1.502c1.604,0.812,2.799,1.902,3.583,3.271c0.783,1.369,1.175,2.931,1.175,4.687
			c0,2.039-0.538,3.838-1.614,5.396c-1.076,1.557-2.596,2.77-4.56,3.639v0.227c2.756,0.547,4.942,1.68,6.556,3.398
			C131.95,119.673,132.757,121.939,132.757,124.753z M118.824,107.421c0-0.699-0.175-1.398-0.524-2.096
			c-0.35-0.699-0.968-1.219-1.855-1.559c-0.793-0.301-1.78-0.467-2.959-0.494c-1.18-0.029-2.837-0.043-4.97-0.043h-1.02v8.92h1.699
			c1.718,0,3.181-0.027,4.39-0.084c1.208-0.057,2.162-0.246,2.86-0.566c0.981-0.436,1.624-0.996,1.926-1.686
			C118.672,109.125,118.824,108.328,118.824,107.421z M121.458,124.583c0-1.342-0.259-2.375-0.777-3.102
			c-0.519-0.727-1.399-1.27-2.643-1.629c-0.848-0.244-2.016-0.377-3.504-0.396c-1.489-0.018-3.043-0.027-4.664-0.027h-2.374v10.506
			h0.791c3.053,0,5.238-0.01,6.557-0.027c1.319-0.02,2.534-0.266,3.646-0.736c1.13-0.473,1.908-1.1,2.332-1.883
			C121.246,126.503,121.458,125.603,121.458,124.583z"/>
	</g>
	<path d="M141.732,96.871H85.04v-2.361h56.693V96.871z M141.732,89.785H85.04v2.361h56.693V89.785z M141.732,103.958H85.04v2.361
		h56.693V103.958z M141.732,99.234H85.04v2.361h56.693V99.234z M141.732,113.408H85.04v2.361h56.693V113.408z M141.732,108.683
		H85.04v2.361h56.693V108.683z M141.732,122.855H85.04v2.361h56.693V122.855z M141.732,118.13H85.04v2.361h56.693V118.13z
		 M141.732,132.304H85.04v2.361h56.693V132.304z M141.732,127.58H85.04v2.361h56.693V127.58z M141.732,141.753H85.04v2.361h56.693
		V141.753z M141.732,137.029H85.04v2.361h56.693V137.029z"/>
	<rect x="85.04" y="147.117" fill="#6C88B9" width="56.693" height="56.691"/>
	<g>
		<path fill="#FFFFFF" d="M132.757,183.808c0,2.039-0.411,3.861-1.232,5.465c-0.821,1.605-1.95,2.936-3.384,3.994
			c-1.662,1.246-3.488,2.133-5.48,2.662c-1.992,0.527-4.517,0.793-7.576,0.793H96.677v-42.17h16.369c3.398,0,5.886,0.113,7.462,0.34
			c1.576,0.227,3.139,0.728,4.687,1.502c1.604,0.812,2.799,1.902,3.583,3.271c0.783,1.369,1.175,2.931,1.175,4.687
			c0,2.039-0.538,3.838-1.614,5.396c-1.076,1.557-2.596,2.77-4.56,3.639v0.227c2.756,0.547,4.942,1.68,6.556,3.398
			C131.95,178.728,132.757,180.994,132.757,183.808z M118.824,166.476c0-0.699-0.175-1.398-0.524-2.096
			c-0.35-0.699-0.968-1.219-1.855-1.559c-0.793-0.301-1.78-0.467-2.959-0.494c-1.18-0.029-2.837-0.043-4.97-0.043h-1.02v8.92h1.699
			c1.718,0,3.181-0.027,4.39-0.084c1.208-0.057,2.162-0.246,2.86-0.566c0.981-0.436,1.624-0.996,1.926-1.686
			C118.672,168.179,118.824,167.382,118.824,166.476z M121.458,183.638c0-1.342-0.259-2.375-0.777-3.102
			c-0.519-0.727-1.399-1.27-2.643-1.629c-0.848-0.244-2.016-0.377-3.504-0.396c-1.489-0.018-3.043-0.027-4.664-0.027h-2.374v10.506
			h0.791c3.053,0,5.238-0.01,6.557-0.027c1.319-0.02,2.534-0.266,3.646-0.736c1.13-0.473,1.908-1.1,2.332-1.883
			C121.246,185.558,121.458,184.658,121.458,183.638z"/>
	</g>
	<path d="M141.732,155.925H85.04v-2.361h56.693V155.925z M141.732,148.839H85.04v2.361h56.693V148.839z M141.732,163.013H85.04
		v2.361h56.693V163.013z M141.732,158.289H85.04v2.361h56.693V158.289z M141.732,172.462H85.04v2.361h56.693V172.462z
		 M141.732,167.738H85.04v2.361h56.693V167.738z M141.732,181.91H85.04v2.361h56.693V181.91z M141.732,177.185H85.04v2.361h56.693
		V177.185z M141.732,191.359H85.04v2.361h56.693V191.359z M141.732,186.634H85.04v2.361h56.693V186.634z M141.732,200.808H85.04
		v2.361h56.693V200.808z M141.732,196.083H85.04v2.361h56.693V196.083z"/>
	<rect x="85.04" y="29.006" fill="#DFA8A7" width="56.693" height="56.693"/>
	<g>
		<path fill="#FFFFFF" d="M135.221,78.611H123.99l-2.937-8.523h-15.605l-2.938,8.523H91.551l15.576-42.168h12.518L135.221,78.611z
			 M118.439,62.355l-5.188-15.107l-5.189,15.107H118.439z"/>
	</g>
	<path d="M141.732,37.816H85.04v-2.361h56.693V37.816z M141.732,30.729H85.04v2.362h56.693V30.729z M141.732,44.904H85.04v2.361
		h56.693V44.904z M141.732,40.179H85.04v2.361h56.693V40.179z M141.732,54.353H85.04v2.361h56.693V54.353z M141.732,49.628H85.04
		v2.361h56.693V49.628z M141.732,63.8H85.04v2.361h56.693V63.8z M141.732,59.076H85.04v2.361h56.693V59.076z M141.732,73.25H85.04
		v2.361h56.693V73.25z M141.732,68.525H85.04v2.361h56.693V68.525z M141.732,82.699H85.04v2.361h56.693V82.699z M141.732,77.974
		H85.04v2.361h56.693V77.974z"/>
	<rect y="206.17" fill="#B4AED3" width="56.693" height="56.693"/>
	<g>
		<path fill="#FFFFFF" d="M49.502,234.736c0,3.926-0.897,7.443-2.69,10.549c-1.794,3.105-4.06,5.49-6.797,7.15
			c-2.058,1.246-4.314,2.115-6.769,2.605c-2.455,0.492-5.362,0.736-8.723,0.736H9.655v-42.168h15.293c3.436,0,6.4,0.287,8.893,0.863
			s4.588,1.393,6.287,2.449c2.907,1.775,5.197,4.168,6.868,7.18S49.502,230.658,49.502,234.736z M38.259,234.65
			c0-2.775-0.505-5.148-1.515-7.123c-1.01-1.973-2.61-3.516-4.8-4.629c-1.114-0.549-2.251-0.922-3.413-1.119
			c-1.161-0.199-2.913-0.297-5.253-0.297H20.53v26.395h2.747c2.586,0,4.484-0.119,5.692-0.355c1.208-0.234,2.388-0.664,3.54-1.287
			c1.982-1.133,3.436-2.648,4.361-4.547C37.796,239.791,38.259,237.445,38.259,234.65z"/>
	</g>
	<rect y="147.116" fill="#CAD69C" width="56.693" height="56.693"/>
	<g>
		<path fill="#FFFFFF" d="M31.802,197.544c-3.134,0-6.028-0.463-8.68-1.389c-2.653-0.924-4.933-2.303-6.839-4.135
			c-1.907-1.83-3.384-4.115-4.432-6.854c-1.048-2.736-1.572-5.9-1.572-9.486c0-3.342,0.5-6.373,1.501-9.092
			c1-2.719,2.454-5.051,4.361-6.994c1.831-1.869,4.102-3.314,6.811-4.334c2.709-1.02,5.668-1.529,8.878-1.529
			c1.774,0,3.375,0.1,4.8,0.298c1.425,0.198,2.742,0.458,3.951,0.778c1.265,0.359,2.412,0.761,3.441,1.204
			c1.029,0.444,1.93,0.854,2.705,1.231v10.225H45.48c-0.529-0.451-1.194-0.986-1.997-1.605c-0.803-0.621-1.713-1.232-2.733-1.832
			c-1.039-0.602-2.162-1.109-3.37-1.521c-1.208-0.414-2.502-0.621-3.88-0.621c-1.529,0-2.983,0.24-4.361,0.721
			c-1.378,0.48-2.653,1.277-3.823,2.389c-1.114,1.074-2.016,2.496-2.705,4.268c-0.689,1.771-1.034,3.918-1.034,6.443
			c0,2.639,0.373,4.844,1.119,6.613c0.746,1.771,1.685,3.166,2.818,4.184c1.151,1.035,2.436,1.775,3.852,2.219
			c1.416,0.441,2.813,0.664,4.191,0.664c1.321,0,2.629-0.197,3.922-0.592c1.293-0.395,2.487-0.93,3.583-1.607
			c0.925-0.543,1.784-1.125,2.577-1.746c0.793-0.619,1.444-1.154,1.954-1.605h1.133v10.082c-1.058,0.471-2.067,0.916-3.03,1.33
			c-0.963,0.416-1.973,0.775-3.03,1.076c-1.378,0.396-2.672,0.699-3.88,0.906C35.578,197.441,33.916,197.544,31.802,197.544z"/>
	</g>
	<rect y="88.06" fill="#6C88B9" width="56.693" height="56.691"/>
	<g>
		<path fill="#FFFFFF" d="M47.718,124.751c0,2.039-0.411,3.861-1.232,5.467c-0.821,1.604-1.95,2.936-3.384,3.992
			c-1.662,1.246-3.488,2.135-5.48,2.662c-1.992,0.529-4.517,0.793-7.576,0.793H11.638V95.498h16.369c3.398,0,5.886,0.113,7.462,0.34
			c1.576,0.227,3.139,0.727,4.687,1.5c1.604,0.812,2.799,1.902,3.583,3.271c0.783,1.369,1.175,2.932,1.175,4.688
			c0,2.039-0.538,3.836-1.614,5.395c-1.076,1.557-2.596,2.771-4.56,3.639v0.227c2.756,0.549,4.942,1.682,6.556,3.398
			C46.911,119.673,47.718,121.939,47.718,124.751z M33.784,107.419c0-0.697-0.175-1.396-0.524-2.096
			c-0.35-0.697-0.968-1.217-1.855-1.557c-0.793-0.303-1.78-0.469-2.959-0.496c-1.18-0.029-2.837-0.043-4.97-0.043h-1.02v8.922h1.699
			c1.718,0,3.181-0.029,4.39-0.086c1.208-0.057,2.162-0.244,2.86-0.566c0.981-0.434,1.624-0.996,1.926-1.686
			C33.633,109.125,33.784,108.326,33.784,107.419z M36.418,124.582c0-1.34-0.259-2.373-0.777-3.102
			c-0.519-0.727-1.399-1.27-2.643-1.627c-0.848-0.246-2.016-0.379-3.504-0.396c-1.489-0.02-3.043-0.029-4.664-0.029h-2.374v10.508
			h0.791c3.053,0,5.238-0.01,6.557-0.029c1.319-0.018,2.534-0.264,3.646-0.736c1.13-0.471,1.908-1.1,2.332-1.883
			S36.418,125.601,36.418,124.582z"/>
	</g>
	<rect y="29.005" fill="#DFA8A7" width="56.693" height="56.692"/>
	<g>
		<path fill="#FFFFFF" d="M50.182,78.611H38.951l-2.937-8.525H20.409l-2.938,8.525H6.512l15.576-42.17h12.518L50.182,78.611z
			 M33.399,62.355l-5.188-15.107l-5.189,15.107H33.399z"/>
	</g>
	<g>
		<path d="M13.401,7.976c-0.512,0-0.992-0.109-1.438-0.328c-0.446-0.218-0.829-0.515-1.147-0.889
			c-0.319-0.375-0.567-0.801-0.745-1.278C9.895,5.003,9.806,4.515,9.806,4.018c0-0.505,0.087-1,0.261-1.485
			c0.174-0.485,0.42-0.917,0.739-1.294c0.319-0.378,0.7-0.679,1.145-0.902C12.395,0.112,12.878,0,13.401,0
			c0.527,0,1.012,0.112,1.454,0.336c0.443,0.224,0.823,0.524,1.142,0.902c0.319,0.377,0.564,0.809,0.736,1.294
			c0.172,0.485,0.258,0.98,0.258,1.485c0,0.498-0.087,0.985-0.261,1.461s-0.422,0.902-0.745,1.278
			c-0.322,0.376-0.706,0.673-1.15,0.892S13.914,7.976,13.401,7.976z M11.557,6.58c0.14,0.215,0.304,0.404,0.494,0.567
			c0.19,0.163,0.402,0.292,0.637,0.389c0.234,0.097,0.473,0.145,0.717,0.145c0.362,0,0.706-0.102,1.031-0.306
			s0.598-0.469,0.816-0.795c0.448-0.691,0.671-1.604,0.671-2.739c0-1.053-0.224-1.896-0.671-2.53
			c-0.218-0.308-0.491-0.556-0.819-0.744c-0.327-0.188-0.67-0.282-1.028-0.282c-0.362,0-0.707,0.095-1.037,0.285
			s-0.6,0.437-0.811,0.741c-0.455,0.637-0.682,1.48-0.682,2.53C10.875,4.972,11.102,5.885,11.557,6.58z"/>
		<path d="M17.873,7.745V7.38c0.247,0,0.449-0.02,0.604-0.059c0.156-0.04,0.234-0.136,0.234-0.29V3.996
			c0-0.197-0.029-0.339-0.086-0.427c-0.057-0.088-0.14-0.142-0.247-0.161c-0.107-0.02-0.276-0.03-0.505-0.03V3.013l1.52-0.118v1.133
			c0.118-0.333,0.286-0.605,0.502-0.816C20.112,3,20.381,2.895,20.704,2.895c0.129,0,0.251,0.028,0.368,0.083
			c0.116,0.055,0.212,0.135,0.287,0.239s0.113,0.217,0.113,0.338c0,0.132-0.042,0.243-0.126,0.33
			c-0.084,0.088-0.192,0.132-0.325,0.132c-0.086,0-0.164-0.021-0.234-0.062c-0.069-0.042-0.125-0.097-0.166-0.167
			c-0.042-0.069-0.062-0.147-0.062-0.233c0-0.179,0.073-0.312,0.22-0.397h-0.075c-0.301,0-0.546,0.109-0.736,0.328
			s-0.324,0.485-0.403,0.8s-0.118,0.618-0.118,0.908v1.837c0,0.233,0.349,0.349,1.047,0.349v0.365H17.873z"/>
		<path d="M22.105,7.745V7.38c0.247,0,0.449-0.02,0.604-0.059c0.156-0.04,0.234-0.136,0.234-0.29V3.996
			c0-0.197-0.026-0.339-0.078-0.427c-0.052-0.088-0.129-0.142-0.231-0.161c-0.102-0.02-0.266-0.03-0.491-0.03V3.013l1.536-0.118
			v4.136c0,0.154,0.068,0.25,0.204,0.29s0.322,0.059,0.559,0.059v0.365H22.105z M22.594,0.978c0-0.147,0.057-0.275,0.169-0.384
			c0.113-0.109,0.243-0.164,0.39-0.164c0.072,0,0.141,0.014,0.207,0.04c0.066,0.027,0.126,0.067,0.18,0.121s0.094,0.114,0.121,0.18
			c0.026,0.066,0.04,0.135,0.04,0.207c0,0.15-0.055,0.282-0.164,0.395c-0.109,0.113-0.237,0.169-0.384,0.169
			c-0.15,0-0.281-0.056-0.392-0.167S22.594,1.131,22.594,0.978z"/>
		<path d="M25.054,8.604c0-0.261,0.095-0.491,0.285-0.69c0.19-0.198,0.419-0.335,0.688-0.411c-0.308-0.208-0.462-0.526-0.462-0.956
			c0-0.326,0.113-0.63,0.338-0.913c-0.33-0.322-0.494-0.7-0.494-1.133c0-0.301,0.082-0.575,0.247-0.822s0.381-0.439,0.649-0.578
			c0.269-0.138,0.551-0.207,0.848-0.207c0.443,0,0.82,0.132,1.132,0.397c0.143-0.161,0.321-0.288,0.533-0.381s0.424-0.14,0.635-0.14
			c0.101,0,0.191,0.025,0.272,0.075s0.145,0.117,0.191,0.201c0.046,0.084,0.07,0.173,0.07,0.266c0,0.086-0.03,0.159-0.089,0.217
			c-0.06,0.06-0.134,0.089-0.224,0.089c-0.083,0-0.155-0.03-0.217-0.091c-0.061-0.061-0.092-0.132-0.092-0.215
			c0-0.079,0.015-0.142,0.043-0.188c0.007-0.007,0.014-0.014,0.021-0.021s0.015-0.014,0.022-0.021l0.06-0.048H29.45
			c-0.179,0-0.354,0.036-0.526,0.107s-0.326,0.172-0.462,0.301c0.289,0.312,0.433,0.664,0.433,1.058
			c0,0.301-0.083,0.575-0.247,0.822c-0.165,0.247-0.382,0.441-0.65,0.583c-0.269,0.142-0.55,0.212-0.843,0.212
			c-0.387,0-0.745-0.115-1.075-0.344c-0.11,0.168-0.166,0.342-0.166,0.521c0,0.197,0.061,0.367,0.183,0.51s0.281,0.215,0.478,0.215
			h0.892c0.437,0,0.827,0.04,1.171,0.118s0.63,0.235,0.859,0.47c0.229,0.234,0.344,0.566,0.344,0.996
			c0,0.322-0.132,0.587-0.397,0.795s-0.583,0.36-0.953,0.457c-0.371,0.097-0.715,0.145-1.034,0.145
			c-0.326,0-0.675-0.048-1.047-0.145s-0.691-0.249-0.956-0.457S25.054,8.927,25.054,8.604z M25.64,8.604c0,0.244,0.1,0.45,0.3,0.62
			c0.2,0.17,0.443,0.296,0.729,0.379c0.286,0.083,0.547,0.124,0.783,0.124c0.232,0,0.492-0.041,0.778-0.124s0.528-0.208,0.727-0.379
			c0.199-0.17,0.298-0.376,0.298-0.62c0-0.279-0.098-0.487-0.295-0.623s-0.425-0.222-0.684-0.258
			c-0.259-0.036-0.537-0.054-0.834-0.054h-0.869c-0.254,0-0.473,0.09-0.657,0.271C25.732,8.122,25.64,8.343,25.64,8.604z
			 M27.151,5.844c0.625,0,0.938-0.448,0.938-1.343c0-0.387-0.068-0.706-0.204-0.956s-0.38-0.376-0.734-0.376
			c-0.353,0-0.599,0.125-0.736,0.376c-0.137,0.25-0.206,0.569-0.206,0.956C26.209,5.396,26.523,5.844,27.151,5.844z"/>
		<path d="M30.474,7.745V7.38c0.247,0,0.449-0.02,0.604-0.059c0.156-0.04,0.234-0.136,0.234-0.29V3.996
			c0-0.197-0.026-0.339-0.078-0.427c-0.052-0.088-0.129-0.142-0.231-0.161c-0.102-0.02-0.266-0.03-0.491-0.03V3.013l1.536-0.118
			v4.136c0,0.154,0.068,0.25,0.204,0.29S32.574,7.38,32.81,7.38v0.365H30.474z M30.962,0.978c0-0.147,0.057-0.275,0.169-0.384
			c0.113-0.109,0.243-0.164,0.39-0.164c0.072,0,0.141,0.014,0.207,0.04c0.066,0.027,0.126,0.067,0.18,0.121s0.094,0.114,0.121,0.18
			c0.026,0.066,0.04,0.135,0.04,0.207c0,0.15-0.055,0.282-0.164,0.395c-0.109,0.113-0.237,0.169-0.384,0.169
			c-0.15,0-0.281-0.056-0.392-0.167S30.962,1.131,30.962,0.978z"/>
		<path d="M33.455,7.745V7.38c0.247,0,0.449-0.02,0.604-0.059c0.156-0.04,0.234-0.136,0.234-0.29V3.996
			c0-0.197-0.029-0.339-0.086-0.427c-0.057-0.088-0.14-0.142-0.247-0.161c-0.107-0.02-0.276-0.03-0.505-0.03V3.013l1.542-0.118v1.08
			c0.086-0.208,0.208-0.394,0.365-0.559s0.337-0.293,0.54-0.384c0.202-0.092,0.418-0.137,0.647-0.137
			c0.501,0,0.875,0.123,1.123,0.368c0.247,0.246,0.371,0.617,0.371,1.115v2.653c0,0.154,0.079,0.25,0.236,0.29
			s0.358,0.059,0.602,0.059v0.365h-2.433V7.38c0.247,0,0.448-0.02,0.604-0.059c0.155-0.04,0.233-0.136,0.233-0.29V4.41
			c0-0.365-0.055-0.665-0.164-0.9c-0.109-0.234-0.325-0.352-0.647-0.352c-0.283,0-0.533,0.081-0.75,0.242
			c-0.216,0.161-0.383,0.374-0.499,0.636C35.108,4.3,35.05,4.567,35.05,4.839v2.191c0,0.154,0.079,0.25,0.236,0.29
			s0.358,0.059,0.602,0.059v0.365H33.455z"/>
		<path d="M39.572,6.687c0-0.336,0.1-0.623,0.299-0.859c0.199-0.236,0.457-0.423,0.774-0.561c0.317-0.138,0.647-0.236,0.987-0.293
			c0.341-0.057,0.671-0.086,0.99-0.086V4.41c0-0.211-0.047-0.419-0.14-0.623s-0.227-0.369-0.399-0.494s-0.368-0.188-0.587-0.188
			c-0.227,0-0.444,0.039-0.652,0.115c-0.208,0.077-0.377,0.196-0.507,0.357h0.038c0.086,0,0.167,0.021,0.24,0.062
			c0.074,0.042,0.131,0.098,0.173,0.169s0.062,0.156,0.062,0.252c0,0.129-0.045,0.24-0.135,0.333c-0.09,0.093-0.203,0.14-0.34,0.14
			c-0.141,0-0.258-0.046-0.351-0.14c-0.094-0.093-0.141-0.204-0.141-0.333c0-0.387,0.167-0.687,0.5-0.899
			c0.333-0.213,0.703-0.32,1.108-0.32c0.298,0,0.594,0.062,0.888,0.188s0.534,0.306,0.721,0.542s0.28,0.505,0.28,0.806v2.476
			c0,0.143,0.031,0.276,0.094,0.4c0.062,0.123,0.158,0.185,0.287,0.185c0.132,0,0.23-0.059,0.293-0.177
			c0.062-0.118,0.094-0.254,0.094-0.408V6.15h0.285v0.704c0,0.168-0.04,0.324-0.121,0.467c-0.08,0.143-0.192,0.259-0.334,0.346
			c-0.143,0.088-0.295,0.132-0.456,0.132c-0.207,0-0.396-0.087-0.565-0.261c-0.17-0.173-0.254-0.368-0.254-0.583
			c-0.086,0.186-0.204,0.346-0.353,0.481c-0.149,0.134-0.317,0.237-0.505,0.309c-0.188,0.072-0.381,0.107-0.579,0.107
			c-0.423,0-0.812-0.098-1.165-0.293C39.749,7.365,39.572,7.074,39.572,6.687z M40.399,6.687c0,0.247,0.096,0.459,0.288,0.636
			c0.192,0.178,0.416,0.266,0.67,0.266c0.229,0,0.442-0.061,0.638-0.183c0.196-0.122,0.349-0.284,0.46-0.486
			c0.111-0.203,0.167-0.418,0.167-0.647V5.129c-0.345,0-0.688,0.056-1.028,0.167s-0.625,0.283-0.854,0.516
			S40.399,6.336,40.399,6.687z"/>
		<path d="M44.825,7.745V7.38c0.247,0,0.449-0.02,0.604-0.059c0.156-0.04,0.234-0.136,0.234-0.29V1.208
			c0-0.193-0.029-0.334-0.086-0.421c-0.057-0.088-0.14-0.142-0.247-0.161c-0.107-0.02-0.276-0.03-0.505-0.03V0.231l1.574-0.118
			v6.918c0,0.154,0.079,0.25,0.236,0.29s0.358,0.059,0.602,0.059v0.365H44.825z"/>
		<path d="M0.809,20.945V20.58c0.695,0,1.042-0.116,1.042-0.349v-6.085c0-0.233-0.347-0.349-1.042-0.349v-0.365h5.854l0.291,2.498
			h-0.29c-0.054-0.469-0.119-0.836-0.196-1.101c-0.077-0.265-0.193-0.473-0.35-0.623c-0.155-0.15-0.368-0.256-0.636-0.317
			s-0.637-0.091-1.106-0.091H3.312c-0.129,0-0.228,0.005-0.295,0.016s-0.122,0.041-0.161,0.091s-0.059,0.131-0.059,0.242v2.863h0.8
			c0.365,0,0.637-0.034,0.813-0.102c0.178-0.068,0.297-0.19,0.36-0.368c0.062-0.177,0.094-0.45,0.094-0.819h0.285v2.938H4.864
			c0-0.367-0.031-0.639-0.094-0.815c-0.063-0.177-0.183-0.299-0.36-0.367c-0.177-0.068-0.448-0.102-0.813-0.102h-0.8v2.858
			c0,0.232,0.435,0.349,1.305,0.349v0.365H0.809z"/>
		<path d="M7.754,20.945V20.58c0.247,0,0.449-0.02,0.604-0.059c0.156-0.04,0.234-0.136,0.234-0.29v-3.035
			c0-0.197-0.026-0.339-0.078-0.427c-0.052-0.088-0.129-0.142-0.231-0.161c-0.102-0.02-0.266-0.03-0.491-0.03v-0.365l1.536-0.118
			v4.136c0,0.154,0.068,0.25,0.204,0.29s0.322,0.059,0.559,0.059v0.365H7.754z M8.243,14.178c0-0.147,0.057-0.275,0.169-0.384
			c0.113-0.109,0.243-0.164,0.39-0.164c0.072,0,0.141,0.014,0.207,0.04c0.066,0.027,0.126,0.067,0.18,0.121s0.094,0.114,0.121,0.18
			c0.026,0.066,0.04,0.135,0.04,0.207c0,0.15-0.055,0.282-0.164,0.395c-0.109,0.113-0.237,0.169-0.384,0.169
			c-0.15,0-0.281-0.056-0.392-0.167S8.243,14.332,8.243,14.178z"/>
		<path d="M10.746,20.945V20.58c0.247,0,0.449-0.02,0.604-0.059c0.156-0.04,0.234-0.136,0.234-0.29v-5.822
			c0-0.193-0.029-0.334-0.086-0.421c-0.057-0.088-0.14-0.142-0.247-0.161c-0.107-0.02-0.276-0.03-0.505-0.03v-0.365l1.574-0.118
			v6.918c0,0.154,0.079,0.25,0.236,0.29s0.358,0.059,0.602,0.059v0.365H10.746z"/>
		<path d="M13.727,20.945V20.58c0.247,0,0.449-0.02,0.604-0.059c0.156-0.04,0.234-0.136,0.234-0.29v-3.035
			c0-0.197-0.029-0.339-0.086-0.427c-0.057-0.088-0.14-0.142-0.247-0.161c-0.107-0.02-0.276-0.03-0.505-0.03v-0.365l1.542-0.118
			v1.08c0.086-0.208,0.208-0.394,0.365-0.559s0.337-0.293,0.54-0.384c0.202-0.092,0.418-0.137,0.647-0.137
			c0.849,0,1.335,0.344,1.461,1.031c0.143-0.304,0.351-0.552,0.623-0.744c0.272-0.192,0.575-0.288,0.908-0.288
			c0.999,0,1.499,0.494,1.499,1.482v2.653c0,0.154,0.078,0.25,0.234,0.29c0.155,0.04,0.355,0.059,0.599,0.059v0.365h-2.422V20.58
			c0.244,0,0.443-0.02,0.599-0.059c0.155-0.04,0.233-0.136,0.233-0.29V17.61c0-0.365-0.055-0.665-0.164-0.9
			c-0.109-0.234-0.326-0.352-0.649-0.352c-0.284,0-0.534,0.081-0.751,0.242s-0.384,0.374-0.501,0.636
			c-0.117,0.264-0.175,0.531-0.175,0.803v2.191c0,0.154,0.079,0.25,0.236,0.29s0.358,0.059,0.602,0.059v0.365h-2.433V20.58
			c0.247,0,0.448-0.02,0.604-0.059c0.155-0.04,0.233-0.136,0.233-0.29V17.61c0-0.365-0.055-0.665-0.164-0.9
			c-0.109-0.234-0.325-0.352-0.647-0.352c-0.283,0-0.533,0.081-0.75,0.242c-0.216,0.161-0.383,0.374-0.499,0.636
			c-0.117,0.264-0.175,0.531-0.175,0.803v2.191c0,0.154,0.079,0.25,0.236,0.29s0.358,0.059,0.602,0.059v0.365H13.727z"/>
		<path d="M26.386,20.945V20.58c0.695,0,1.042-0.116,1.042-0.349v-6.085c0-0.233-0.347-0.349-1.042-0.349v-0.365h5.854l0.291,2.498
			h-0.29c-0.054-0.469-0.119-0.836-0.196-1.101c-0.077-0.265-0.193-0.473-0.35-0.623c-0.155-0.15-0.368-0.256-0.636-0.317
			s-0.637-0.091-1.106-0.091h-1.063c-0.129,0-0.228,0.005-0.295,0.016s-0.122,0.041-0.161,0.091s-0.059,0.131-0.059,0.242v2.863h0.8
			c0.365,0,0.637-0.034,0.813-0.102c0.178-0.068,0.297-0.19,0.36-0.368c0.062-0.177,0.094-0.45,0.094-0.819h0.285v2.938h-0.285
			c0-0.367-0.031-0.639-0.094-0.815c-0.063-0.177-0.183-0.299-0.36-0.367c-0.177-0.068-0.448-0.102-0.813-0.102h-0.8v2.858
			c0,0.232,0.435,0.349,1.305,0.349v0.365H26.386z"/>
		<path d="M33.277,20.945V20.58c0.247,0,0.449-0.02,0.604-0.059c0.156-0.04,0.234-0.136,0.234-0.29v-3.035
			c0-0.197-0.029-0.339-0.086-0.427c-0.057-0.088-0.14-0.142-0.247-0.161c-0.107-0.02-0.276-0.03-0.505-0.03v-0.365l1.52-0.118
			v1.133c0.118-0.333,0.286-0.605,0.502-0.816c0.217-0.211,0.486-0.317,0.809-0.317c0.129,0,0.251,0.028,0.368,0.083
			c0.116,0.055,0.212,0.135,0.287,0.239s0.113,0.217,0.113,0.338c0,0.132-0.042,0.243-0.126,0.33
			c-0.084,0.088-0.192,0.132-0.325,0.132c-0.086,0-0.164-0.021-0.234-0.062c-0.069-0.042-0.125-0.097-0.166-0.167
			c-0.042-0.069-0.062-0.147-0.062-0.233c0-0.179,0.073-0.312,0.22-0.397h-0.075c-0.301,0-0.546,0.109-0.736,0.328
			s-0.324,0.485-0.403,0.8s-0.118,0.618-0.118,0.908v1.837c0,0.233,0.349,0.349,1.047,0.349v0.365H33.277z"/>
		<path d="M37.633,19.887c0-0.336,0.1-0.623,0.299-0.859c0.199-0.236,0.457-0.423,0.774-0.561c0.317-0.138,0.647-0.236,0.987-0.293
			c0.341-0.057,0.671-0.086,0.99-0.086V17.61c0-0.211-0.047-0.419-0.14-0.623s-0.227-0.369-0.399-0.494s-0.368-0.188-0.587-0.188
			c-0.227,0-0.444,0.039-0.652,0.115c-0.208,0.077-0.377,0.196-0.507,0.357h0.038c0.086,0,0.167,0.021,0.24,0.062
			c0.074,0.042,0.131,0.098,0.173,0.169s0.062,0.156,0.062,0.252c0,0.129-0.045,0.24-0.135,0.333c-0.09,0.093-0.203,0.14-0.34,0.14
			c-0.141,0-0.258-0.046-0.351-0.14c-0.094-0.093-0.141-0.204-0.141-0.333c0-0.387,0.167-0.687,0.5-0.899
			c0.333-0.213,0.703-0.32,1.108-0.32c0.298,0,0.594,0.062,0.888,0.188s0.534,0.306,0.721,0.542s0.28,0.505,0.28,0.806v2.476
			c0,0.143,0.031,0.276,0.094,0.4c0.062,0.123,0.158,0.185,0.287,0.185c0.132,0,0.23-0.059,0.293-0.177
			c0.062-0.118,0.094-0.254,0.094-0.408V19.35h0.285v0.704c0,0.168-0.04,0.324-0.121,0.467c-0.08,0.143-0.192,0.259-0.334,0.346
			c-0.143,0.088-0.295,0.132-0.456,0.132c-0.207,0-0.396-0.087-0.565-0.261c-0.17-0.173-0.254-0.368-0.254-0.583
			c-0.086,0.186-0.204,0.346-0.353,0.481c-0.149,0.134-0.317,0.237-0.505,0.309c-0.188,0.072-0.381,0.107-0.579,0.107
			c-0.423,0-0.812-0.098-1.165-0.293C37.81,20.565,37.633,20.274,37.633,19.887z M38.46,19.887c0,0.247,0.096,0.459,0.288,0.636
			c0.192,0.178,0.416,0.266,0.67,0.266c0.229,0,0.442-0.061,0.638-0.183c0.196-0.122,0.349-0.284,0.46-0.486
			c0.111-0.203,0.167-0.418,0.167-0.647V18.33c-0.345,0-0.688,0.056-1.028,0.167s-0.625,0.283-0.854,0.516
			S38.46,19.536,38.46,19.887z"/>
		<path d="M42.875,20.945V20.58c0.247,0,0.449-0.02,0.604-0.059c0.156-0.04,0.234-0.136,0.234-0.29v-3.035
			c0-0.197-0.029-0.339-0.086-0.427c-0.057-0.088-0.14-0.142-0.247-0.161c-0.107-0.02-0.276-0.03-0.505-0.03v-0.365l1.542-0.118
			v1.08c0.086-0.208,0.208-0.394,0.365-0.559s0.337-0.293,0.54-0.384c0.202-0.092,0.418-0.137,0.647-0.137
			c0.849,0,1.335,0.344,1.461,1.031c0.143-0.304,0.351-0.552,0.623-0.744c0.272-0.192,0.575-0.288,0.908-0.288
			c0.999,0,1.499,0.494,1.499,1.482v2.653c0,0.154,0.078,0.25,0.234,0.29c0.155,0.04,0.355,0.059,0.599,0.059v0.365H48.87V20.58
			c0.244,0,0.443-0.02,0.599-0.059c0.155-0.04,0.233-0.136,0.233-0.29V17.61c0-0.365-0.055-0.665-0.164-0.9
			c-0.109-0.234-0.326-0.352-0.649-0.352c-0.284,0-0.534,0.081-0.751,0.242s-0.384,0.374-0.501,0.636
			c-0.117,0.264-0.175,0.531-0.175,0.803v2.191c0,0.154,0.079,0.25,0.236,0.29s0.358,0.059,0.602,0.059v0.365h-2.433V20.58
			c0.247,0,0.448-0.02,0.604-0.059c0.155-0.04,0.233-0.136,0.233-0.29V17.61c0-0.365-0.055-0.665-0.164-0.9
			c-0.109-0.234-0.325-0.352-0.647-0.352c-0.283,0-0.533,0.081-0.75,0.242c-0.216,0.161-0.383,0.374-0.499,0.636
			c-0.117,0.264-0.175,0.531-0.175,0.803v2.191c0,0.154,0.079,0.25,0.236,0.29s0.358,0.059,0.602,0.059v0.365H42.875z"/>
		<path d="M54.208,21.053c-0.448,0-0.852-0.115-1.211-0.347c-0.36-0.23-0.645-0.541-0.854-0.929
			c-0.209-0.389-0.314-0.803-0.314-1.244c0-0.422,0.094-0.825,0.282-1.206c0.188-0.382,0.454-0.691,0.798-0.93
			c0.344-0.238,0.729-0.357,1.155-0.357c0.33,0,0.617,0.056,0.862,0.169c0.246,0.112,0.446,0.268,0.602,0.464
			c0.156,0.197,0.274,0.434,0.354,0.711c0.081,0.278,0.121,0.572,0.121,0.884c0,0.083-0.03,0.124-0.091,0.124H52.71v0.14
			c0,0.602,0.124,1.125,0.371,1.568s0.655,0.666,1.225,0.666c0.222,0,0.431-0.053,0.626-0.159c0.195-0.105,0.36-0.245,0.497-0.419
			c0.136-0.173,0.234-0.373,0.295-0.599c0-0.018,0.009-0.033,0.027-0.046c0.018-0.012,0.04-0.019,0.064-0.019h0.097
			c0.021,0,0.042,0.009,0.062,0.027c0.02,0.018,0.029,0.041,0.029,0.07v0.032c-0.068,0.269-0.19,0.508-0.368,0.72
			c-0.177,0.211-0.392,0.377-0.645,0.497C54.738,20.993,54.477,21.053,54.208,21.053z M52.721,18.142h2.546
			c0-0.283-0.039-0.565-0.115-0.846c-0.077-0.281-0.206-0.517-0.386-0.707c-0.181-0.19-0.416-0.285-0.705-0.285
			c-0.286,0-0.531,0.096-0.737,0.287c-0.206,0.192-0.357,0.43-0.456,0.715C52.77,17.591,52.721,17.87,52.721,18.142z"/>
	</g>
	<g>
		<path d="M89.904,7.879l-2.61-6.956c-0.072-0.147-0.19-0.238-0.354-0.274s-0.379-0.054-0.645-0.054V0.23h2.782v0.365
			c-0.544,0-0.816,0.095-0.816,0.285v0.054l2.17,5.752l2.057-5.441c0.014-0.064,0.021-0.113,0.021-0.145
			c0-0.115-0.037-0.209-0.11-0.285c-0.073-0.075-0.167-0.131-0.282-0.167s-0.226-0.054-0.333-0.054V0.23h2.175v0.365
			c-0.258,0-0.484,0.051-0.68,0.153c-0.195,0.103-0.339,0.264-0.432,0.486l-2.492,6.644c-0.032,0.064-0.084,0.097-0.156,0.097
			h-0.145C89.979,7.976,89.929,7.943,89.904,7.879z"/>
		<path d="M94.507,7.745V7.379c0.247,0,0.449-0.02,0.604-0.059c0.156-0.04,0.234-0.136,0.234-0.29V3.996
			c0-0.197-0.026-0.339-0.078-0.427c-0.052-0.088-0.129-0.142-0.231-0.161c-0.102-0.02-0.266-0.03-0.491-0.03V3.013l1.536-0.118
			V7.03c0,0.154,0.068,0.25,0.204,0.29s0.322,0.059,0.559,0.059v0.365H94.507z M94.996,0.977c0-0.147,0.057-0.275,0.169-0.384
			c0.113-0.109,0.243-0.164,0.39-0.164c0.072,0,0.141,0.014,0.207,0.04c0.066,0.027,0.126,0.067,0.18,0.121s0.094,0.114,0.121,0.18
			c0.026,0.066,0.04,0.135,0.04,0.207c0,0.15-0.055,0.282-0.164,0.395c-0.109,0.113-0.237,0.169-0.384,0.169
			c-0.15,0-0.281-0.056-0.392-0.167S94.996,1.131,94.996,0.977z"/>
		<path d="M99.763,7.852c-0.319,0-0.617-0.067-0.893-0.201c-0.276-0.135-0.515-0.321-0.715-0.559
			c-0.201-0.238-0.357-0.507-0.468-0.806c-0.111-0.299-0.167-0.604-0.167-0.916c0-0.43,0.104-0.836,0.312-1.219
			s0.493-0.688,0.855-0.916c0.362-0.228,0.762-0.341,1.2-0.341c0.269,0,0.524,0.057,0.767,0.172
			c0.242,0.115,0.449,0.277,0.621,0.489V1.208c0-0.193-0.029-0.334-0.086-0.421c-0.057-0.088-0.14-0.142-0.247-0.161
			c-0.107-0.02-0.276-0.03-0.505-0.03V0.23l1.574-0.118v6.655c0,0.193,0.029,0.334,0.086,0.422c0.057,0.087,0.14,0.141,0.247,0.161
			c0.107,0.02,0.276,0.029,0.505,0.029v0.365l-1.595,0.107V7.138c-0.187,0.222-0.411,0.396-0.672,0.524
			C100.319,7.789,100.046,7.852,99.763,7.852z M99.846,7.589c0.297,0,0.573-0.088,0.827-0.266c0.254-0.177,0.448-0.407,0.58-0.69
			V3.996c-0.083-0.161-0.189-0.306-0.319-0.435c-0.131-0.129-0.279-0.228-0.446-0.298c-0.166-0.069-0.341-0.104-0.523-0.104
			c-0.559,0-0.959,0.219-1.2,0.658c-0.242,0.438-0.363,0.96-0.363,1.565c0,0.365,0.041,0.712,0.124,1.042s0.23,0.606,0.443,0.83
			C99.181,7.477,99.473,7.589,99.846,7.589z"/>
		<path d="M105.829,7.852c-0.448,0-0.852-0.115-1.211-0.347c-0.36-0.23-0.645-0.541-0.854-0.929
			c-0.209-0.389-0.314-0.803-0.314-1.244c0-0.422,0.094-0.825,0.282-1.206c0.188-0.382,0.454-0.691,0.798-0.93
			c0.344-0.238,0.729-0.357,1.155-0.357c0.33,0,0.617,0.056,0.862,0.169c0.246,0.112,0.446,0.268,0.602,0.464
			c0.156,0.197,0.274,0.434,0.354,0.711c0.081,0.278,0.121,0.572,0.121,0.884c0,0.083-0.03,0.124-0.091,0.124h-3.201v0.14
			c0,0.602,0.124,1.125,0.371,1.568s0.655,0.666,1.225,0.666c0.222,0,0.431-0.053,0.626-0.159c0.195-0.105,0.36-0.245,0.497-0.419
			c0.136-0.173,0.234-0.373,0.295-0.599c0-0.018,0.009-0.033,0.027-0.046c0.018-0.012,0.04-0.019,0.064-0.019h0.097
			c0.021,0,0.042,0.009,0.062,0.027c0.02,0.018,0.029,0.041,0.029,0.07v0.032c-0.068,0.269-0.19,0.508-0.368,0.72
			c-0.177,0.211-0.392,0.377-0.645,0.497C106.358,7.792,106.098,7.852,105.829,7.852z M104.341,4.941h2.546
			c0-0.283-0.039-0.565-0.115-0.846c-0.077-0.281-0.206-0.517-0.386-0.707c-0.181-0.19-0.416-0.285-0.705-0.285
			c-0.286,0-0.531,0.096-0.737,0.287c-0.206,0.192-0.357,0.43-0.456,0.715C104.391,4.39,104.341,4.669,104.341,4.941z"/>
		<path d="M110.625,7.852c-0.437,0-0.838-0.111-1.203-0.333s-0.654-0.522-0.867-0.899c-0.213-0.378-0.32-0.784-0.32-1.217
			c0-0.326,0.059-0.644,0.177-0.953c0.118-0.31,0.287-0.586,0.505-0.83s0.473-0.434,0.763-0.572c0.29-0.138,0.605-0.207,0.945-0.207
			c0.444,0,0.848,0.119,1.211,0.357c0.364,0.238,0.648,0.556,0.854,0.954C112.896,4.549,113,4.966,113,5.403
			c0,0.433-0.105,0.839-0.317,1.217c-0.211,0.377-0.498,0.677-0.859,0.899S111.062,7.852,110.625,7.852z M110.625,7.567
			c0.996,0,1.493-0.763,1.493-2.288c0-1.45-0.498-2.175-1.493-2.175c-1.006,0-1.509,0.725-1.509,2.175
			C109.116,6.805,109.619,7.567,110.625,7.567z"/>
		<path d="M117.318,7.745V7.379c0.695,0,1.042-0.116,1.042-0.349V0.945c0-0.233-0.347-0.349-1.042-0.349V0.23h5.854l0.291,2.498
			h-0.29c-0.054-0.469-0.119-0.836-0.196-1.101c-0.077-0.265-0.193-0.473-0.35-0.623c-0.155-0.15-0.368-0.256-0.636-0.317
			s-0.637-0.091-1.106-0.091h-1.063c-0.129,0-0.228,0.005-0.295,0.016s-0.122,0.041-0.161,0.091s-0.059,0.131-0.059,0.242v2.863h0.8
			c0.365,0,0.637-0.034,0.813-0.102c0.178-0.068,0.297-0.19,0.36-0.368c0.062-0.177,0.094-0.45,0.094-0.819h0.285v2.938h-0.285
			c0-0.367-0.031-0.639-0.094-0.815c-0.063-0.177-0.183-0.299-0.36-0.367c-0.177-0.068-0.448-0.102-0.813-0.102h-0.8v2.858
			c0,0.232,0.435,0.349,1.305,0.349v0.365H117.318z"/>
		<path d="M124.263,7.745V7.379c0.247,0,0.449-0.02,0.604-0.059c0.156-0.04,0.234-0.136,0.234-0.29V3.996
			c0-0.197-0.026-0.339-0.078-0.427c-0.052-0.088-0.129-0.142-0.231-0.161c-0.102-0.02-0.266-0.03-0.491-0.03V3.013l1.536-0.118
			V7.03c0,0.154,0.068,0.25,0.204,0.29s0.322,0.059,0.559,0.059v0.365H124.263z M124.751,0.977c0-0.147,0.057-0.275,0.169-0.384
			c0.113-0.109,0.243-0.164,0.39-0.164c0.072,0,0.141,0.014,0.207,0.04c0.066,0.027,0.126,0.067,0.18,0.121s0.094,0.114,0.121,0.18
			c0.026,0.066,0.04,0.135,0.04,0.207c0,0.15-0.055,0.282-0.164,0.395c-0.109,0.113-0.237,0.169-0.384,0.169
			c-0.15,0-0.281-0.056-0.392-0.167S124.751,1.131,124.751,0.977z"/>
		<path d="M129.602,7.852c-0.448,0-0.852-0.115-1.211-0.347c-0.36-0.23-0.645-0.541-0.854-0.929
			c-0.209-0.389-0.314-0.803-0.314-1.244c0-0.422,0.094-0.825,0.282-1.206c0.188-0.382,0.454-0.691,0.798-0.93
			c0.344-0.238,0.729-0.357,1.155-0.357c0.33,0,0.617,0.056,0.862,0.169c0.246,0.112,0.446,0.268,0.602,0.464
			c0.156,0.197,0.274,0.434,0.354,0.711c0.081,0.278,0.121,0.572,0.121,0.884c0,0.083-0.03,0.124-0.091,0.124h-3.201v0.14
			c0,0.602,0.124,1.125,0.371,1.568s0.655,0.666,1.225,0.666c0.222,0,0.431-0.053,0.626-0.159c0.195-0.105,0.36-0.245,0.497-0.419
			c0.136-0.173,0.234-0.373,0.295-0.599c0-0.018,0.009-0.033,0.027-0.046c0.018-0.012,0.04-0.019,0.064-0.019h0.097
			c0.021,0,0.042,0.009,0.062,0.027c0.02,0.018,0.029,0.041,0.029,0.07v0.032c-0.068,0.269-0.19,0.508-0.368,0.72
			c-0.177,0.211-0.392,0.377-0.645,0.497C130.131,7.792,129.87,7.852,129.602,7.852z M128.114,4.941h2.546
			c0-0.283-0.039-0.565-0.115-0.846c-0.077-0.281-0.206-0.517-0.386-0.707c-0.181-0.19-0.416-0.285-0.705-0.285
			c-0.286,0-0.531,0.096-0.737,0.287c-0.206,0.192-0.357,0.43-0.456,0.715C128.163,4.39,128.114,4.669,128.114,4.941z"/>
		<path d="M132.04,7.745V7.379c0.247,0,0.449-0.02,0.604-0.059c0.156-0.04,0.234-0.136,0.234-0.29V1.208
			c0-0.193-0.029-0.334-0.086-0.421c-0.057-0.088-0.14-0.142-0.247-0.161c-0.107-0.02-0.276-0.03-0.505-0.03V0.23l1.574-0.118V7.03
			c0,0.154,0.079,0.25,0.236,0.29s0.358,0.059,0.602,0.059v0.365H132.04z"/>
		<path d="M137.296,7.852c-0.319,0-0.617-0.067-0.893-0.201c-0.276-0.135-0.515-0.321-0.715-0.559
			c-0.201-0.238-0.357-0.507-0.468-0.806c-0.111-0.299-0.167-0.604-0.167-0.916c0-0.43,0.104-0.836,0.312-1.219
			s0.493-0.688,0.855-0.916c0.362-0.228,0.762-0.341,1.2-0.341c0.269,0,0.524,0.057,0.767,0.172
			c0.242,0.115,0.449,0.277,0.621,0.489V1.208c0-0.193-0.029-0.334-0.086-0.421c-0.057-0.088-0.14-0.142-0.247-0.161
			c-0.107-0.02-0.276-0.03-0.505-0.03V0.23l1.574-0.118v6.655c0,0.193,0.029,0.334,0.086,0.422c0.057,0.087,0.14,0.141,0.247,0.161
			c0.107,0.02,0.276,0.029,0.505,0.029v0.365l-1.595,0.107V7.138c-0.187,0.222-0.411,0.396-0.672,0.524
			C137.852,7.789,137.58,7.852,137.296,7.852z M137.379,7.589c0.297,0,0.573-0.088,0.827-0.266c0.254-0.177,0.448-0.407,0.58-0.69
			V3.996c-0.083-0.161-0.189-0.306-0.319-0.435c-0.131-0.129-0.279-0.228-0.446-0.298c-0.166-0.069-0.341-0.104-0.523-0.104
			c-0.559,0-0.959,0.219-1.2,0.658c-0.242,0.438-0.363,0.96-0.363,1.565c0,0.365,0.041,0.712,0.124,1.042s0.23,0.606,0.443,0.83
			C136.714,7.477,137.006,7.589,137.379,7.589z"/>
		<path d="M102.394,23.684c-0.786-0.62-1.366-1.415-1.741-2.385s-0.562-2.005-0.562-3.104c0-1.096,0.188-2.128,0.562-3.097
			c0.375-0.968,0.956-1.762,1.741-2.382c0.014-0.014,0.029-0.021,0.043-0.021h0.108c0.054,0,0.081,0.029,0.081,0.086
			c0,0.018-0.007,0.041-0.021,0.07c-0.344,0.333-0.638,0.708-0.884,1.125c-0.245,0.417-0.439,0.851-0.583,1.302
			s-0.247,0.921-0.312,1.41c-0.064,0.489-0.097,0.991-0.097,1.507c0,0.684,0.058,1.346,0.174,1.987
			c0.117,0.641,0.313,1.25,0.591,1.829c0.278,0.578,0.647,1.091,1.109,1.539c0.014,0.029,0.021,0.052,0.021,0.07
			c0,0.057-0.027,0.086-0.081,0.086h-0.108C102.422,23.706,102.408,23.698,102.394,23.684z"/>
		<path d="M107.402,21.176c-0.512,0-0.992-0.109-1.438-0.328c-0.446-0.218-0.829-0.515-1.147-0.889
			c-0.319-0.375-0.567-0.801-0.745-1.278c-0.177-0.479-0.266-0.966-0.266-1.464c0-0.505,0.087-1,0.261-1.485
			c0.174-0.485,0.42-0.917,0.739-1.294c0.319-0.378,0.7-0.679,1.145-0.902c0.444-0.224,0.928-0.336,1.451-0.336
			c0.527,0,1.012,0.112,1.454,0.336c0.443,0.224,0.823,0.524,1.142,0.902c0.319,0.377,0.564,0.809,0.736,1.294
			c0.172,0.485,0.258,0.98,0.258,1.485c0,0.498-0.087,0.985-0.261,1.461s-0.422,0.902-0.745,1.278
			c-0.322,0.376-0.706,0.673-1.15,0.892S107.915,21.176,107.402,21.176z M105.558,19.779c0.14,0.215,0.304,0.404,0.494,0.567
			c0.19,0.163,0.402,0.292,0.637,0.389c0.234,0.097,0.473,0.145,0.717,0.145c0.362,0,0.706-0.102,1.031-0.306
			s0.598-0.469,0.816-0.795c0.448-0.691,0.671-1.604,0.671-2.739c0-1.053-0.224-1.896-0.671-2.53
			c-0.218-0.308-0.491-0.556-0.819-0.744c-0.327-0.188-0.67-0.282-1.028-0.282c-0.362,0-0.707,0.095-1.037,0.285
			s-0.6,0.437-0.811,0.741c-0.455,0.637-0.682,1.48-0.682,2.53C104.875,18.171,105.103,19.084,105.558,19.779z"/>
		<path d="M114.192,21.052c-0.319,0-0.617-0.067-0.893-0.201c-0.276-0.135-0.515-0.321-0.715-0.559
			c-0.201-0.238-0.357-0.507-0.468-0.806c-0.111-0.299-0.167-0.604-0.167-0.916c0-0.43,0.104-0.836,0.312-1.219
			s0.493-0.688,0.855-0.916c0.362-0.228,0.762-0.341,1.2-0.341c0.269,0,0.524,0.057,0.767,0.172
			c0.242,0.115,0.449,0.277,0.621,0.489v-2.347c0-0.193-0.029-0.334-0.086-0.421c-0.057-0.088-0.14-0.142-0.247-0.161
			c-0.107-0.02-0.276-0.03-0.505-0.03v-0.365l1.574-0.118v6.655c0,0.193,0.029,0.334,0.086,0.422
			c0.057,0.087,0.14,0.141,0.247,0.161c0.107,0.02,0.276,0.029,0.505,0.029v0.365l-1.595,0.107v-0.714
			c-0.187,0.222-0.411,0.396-0.672,0.524C114.748,20.989,114.476,21.052,114.192,21.052z M114.275,20.789
			c0.297,0,0.573-0.088,0.827-0.266c0.254-0.177,0.448-0.407,0.58-0.69v-2.637c-0.083-0.161-0.189-0.306-0.319-0.435
			c-0.131-0.129-0.279-0.228-0.446-0.298c-0.166-0.069-0.341-0.104-0.523-0.104c-0.559,0-0.959,0.219-1.2,0.658
			c-0.242,0.438-0.363,0.96-0.363,1.565c0,0.365,0.041,0.712,0.124,1.042s0.23,0.606,0.443,0.83
			C113.61,20.677,113.902,20.789,114.275,20.789z"/>
		<path d="M120.176,21.052c-0.319,0-0.617-0.067-0.893-0.201c-0.276-0.135-0.515-0.321-0.715-0.559
			c-0.201-0.238-0.357-0.507-0.468-0.806c-0.111-0.299-0.167-0.604-0.167-0.916c0-0.43,0.104-0.836,0.312-1.219
			s0.493-0.688,0.855-0.916c0.362-0.228,0.762-0.341,1.2-0.341c0.269,0,0.524,0.057,0.767,0.172
			c0.242,0.115,0.449,0.277,0.621,0.489v-2.347c0-0.193-0.029-0.334-0.086-0.421c-0.057-0.088-0.14-0.142-0.247-0.161
			c-0.107-0.02-0.276-0.03-0.505-0.03v-0.365l1.574-0.118v6.655c0,0.193,0.029,0.334,0.086,0.422
			c0.057,0.087,0.14,0.141,0.247,0.161c0.107,0.02,0.276,0.029,0.505,0.029v0.365l-1.595,0.107v-0.714
			c-0.187,0.222-0.411,0.396-0.672,0.524C120.731,20.989,120.459,21.052,120.176,21.052z M120.258,20.789
			c0.297,0,0.573-0.088,0.827-0.266c0.254-0.177,0.448-0.407,0.58-0.69v-2.637c-0.083-0.161-0.189-0.306-0.319-0.435
			c-0.131-0.129-0.279-0.228-0.446-0.298c-0.166-0.069-0.341-0.104-0.523-0.104c-0.559,0-0.959,0.219-1.2,0.658
			c-0.242,0.438-0.363,0.96-0.363,1.565c0,0.365,0.041,0.712,0.124,1.042s0.23,0.606,0.443,0.83
			C119.593,20.677,119.886,20.789,120.258,20.789z"/>
		<path d="M124.228,23.706c-0.05,0-0.075-0.029-0.075-0.086c0-0.025,0.011-0.048,0.032-0.07c0.669-0.655,1.147-1.443,1.431-2.363
			c0.285-0.92,0.427-1.917,0.427-2.992c0-0.512-0.03-1.011-0.091-1.496c-0.061-0.485-0.162-0.954-0.304-1.407
			c-0.141-0.453-0.333-0.888-0.574-1.305c-0.242-0.417-0.538-0.796-0.889-1.136c-0.021-0.021-0.032-0.045-0.032-0.07
			c0-0.057,0.025-0.086,0.075-0.086h0.107c0.011,0,0.03,0.007,0.059,0.021c0.777,0.62,1.353,1.414,1.727,2.382
			c0.375,0.969,0.562,2.001,0.562,3.097c0,1.099-0.187,2.134-0.562,3.104c-0.374,0.97-0.95,1.765-1.727,2.385
			c-0.029,0.014-0.048,0.021-0.059,0.021H124.228z"/>
	</g>
	<g>
		<path d="M174.943,7.879l-2.61-6.956c-0.072-0.147-0.19-0.238-0.354-0.274s-0.379-0.054-0.645-0.054V0.231h2.782v0.365
			c-0.544,0-0.816,0.095-0.816,0.285v0.054l2.17,5.752l2.057-5.441c0.014-0.064,0.021-0.113,0.021-0.145
			c0-0.115-0.037-0.209-0.11-0.285c-0.073-0.075-0.167-0.131-0.282-0.167s-0.226-0.054-0.333-0.054V0.231h2.175v0.365
			c-0.258,0-0.484,0.051-0.68,0.153c-0.195,0.103-0.339,0.264-0.432,0.486l-2.492,6.644c-0.032,0.064-0.084,0.097-0.156,0.097
			h-0.145C175.018,7.976,174.968,7.944,174.943,7.879z"/>
		<path d="M179.546,7.745V7.38c0.247,0,0.449-0.02,0.604-0.059c0.156-0.04,0.234-0.136,0.234-0.29V3.996
			c0-0.197-0.026-0.339-0.078-0.427c-0.052-0.088-0.129-0.142-0.231-0.161c-0.102-0.02-0.266-0.03-0.491-0.03V3.013l1.536-0.118
			v4.136c0,0.154,0.068,0.25,0.204,0.29s0.322,0.059,0.559,0.059v0.365H179.546z M180.035,0.978c0-0.147,0.057-0.275,0.169-0.384
			c0.113-0.109,0.243-0.164,0.39-0.164c0.072,0,0.141,0.014,0.207,0.04c0.066,0.027,0.126,0.067,0.18,0.121s0.094,0.114,0.121,0.18
			c0.026,0.066,0.04,0.135,0.04,0.207c0,0.15-0.055,0.282-0.164,0.395c-0.109,0.113-0.237,0.169-0.384,0.169
			c-0.15,0-0.281-0.056-0.392-0.167S180.035,1.131,180.035,0.978z"/>
		<path d="M184.802,7.853c-0.319,0-0.617-0.067-0.893-0.201c-0.276-0.135-0.515-0.321-0.715-0.559
			c-0.201-0.238-0.357-0.507-0.468-0.806c-0.111-0.299-0.167-0.604-0.167-0.916c0-0.43,0.104-0.836,0.312-1.219
			s0.493-0.688,0.855-0.916c0.362-0.228,0.762-0.341,1.2-0.341c0.269,0,0.524,0.057,0.767,0.172
			c0.242,0.115,0.449,0.277,0.621,0.489V1.208c0-0.193-0.029-0.334-0.086-0.421c-0.057-0.088-0.14-0.142-0.247-0.161
			c-0.107-0.02-0.276-0.03-0.505-0.03V0.231l1.574-0.118v6.655c0,0.193,0.029,0.334,0.086,0.422c0.057,0.087,0.14,0.141,0.247,0.161
			c0.107,0.02,0.276,0.029,0.505,0.029v0.365l-1.595,0.107V7.138c-0.187,0.222-0.411,0.396-0.672,0.524
			C185.358,7.789,185.085,7.853,184.802,7.853z M184.885,7.589c0.297,0,0.573-0.088,0.827-0.266c0.254-0.177,0.448-0.407,0.58-0.69
			V3.996c-0.083-0.161-0.189-0.306-0.319-0.435c-0.131-0.129-0.279-0.228-0.446-0.298c-0.166-0.069-0.341-0.104-0.523-0.104
			c-0.559,0-0.959,0.219-1.2,0.658c-0.242,0.438-0.363,0.96-0.363,1.565c0,0.365,0.041,0.712,0.124,1.042s0.23,0.606,0.443,0.83
			C184.22,7.478,184.512,7.589,184.885,7.589z"/>
		<path d="M190.868,7.853c-0.448,0-0.852-0.115-1.211-0.347c-0.36-0.23-0.645-0.541-0.854-0.929
			c-0.209-0.389-0.314-0.803-0.314-1.244c0-0.422,0.094-0.825,0.282-1.206c0.188-0.382,0.454-0.691,0.798-0.93
			c0.344-0.238,0.729-0.357,1.155-0.357c0.33,0,0.617,0.056,0.862,0.169c0.246,0.112,0.446,0.268,0.602,0.464
			c0.156,0.197,0.274,0.434,0.354,0.711c0.081,0.278,0.121,0.572,0.121,0.884c0,0.083-0.03,0.124-0.091,0.124h-3.201v0.14
			c0,0.602,0.124,1.125,0.371,1.568s0.655,0.666,1.225,0.666c0.222,0,0.431-0.053,0.626-0.159c0.195-0.105,0.36-0.245,0.497-0.419
			c0.136-0.173,0.234-0.373,0.295-0.599c0-0.018,0.009-0.033,0.027-0.046c0.018-0.012,0.04-0.019,0.064-0.019h0.097
			c0.021,0,0.042,0.009,0.062,0.027c0.02,0.018,0.029,0.041,0.029,0.07v0.032c-0.068,0.269-0.19,0.508-0.368,0.72
			c-0.177,0.211-0.392,0.377-0.645,0.497C191.397,7.792,191.137,7.853,190.868,7.853z M189.38,4.941h2.546
			c0-0.283-0.039-0.565-0.115-0.846c-0.077-0.281-0.206-0.517-0.386-0.707c-0.181-0.19-0.416-0.285-0.705-0.285
			c-0.286,0-0.531,0.096-0.737,0.287c-0.206,0.192-0.357,0.43-0.456,0.715C189.43,4.391,189.38,4.669,189.38,4.941z"/>
		<path d="M195.665,7.853c-0.437,0-0.838-0.111-1.203-0.333s-0.654-0.522-0.867-0.899c-0.213-0.378-0.32-0.784-0.32-1.217
			c0-0.326,0.059-0.644,0.177-0.953c0.118-0.31,0.287-0.586,0.505-0.83s0.473-0.434,0.763-0.572c0.29-0.138,0.605-0.207,0.945-0.207
			c0.444,0,0.848,0.119,1.211,0.357c0.364,0.238,0.648,0.556,0.854,0.954c0.206,0.397,0.309,0.814,0.309,1.251
			c0,0.433-0.105,0.839-0.317,1.217c-0.211,0.377-0.498,0.677-0.859,0.899S196.102,7.853,195.665,7.853z M195.665,7.568
			c0.996,0,1.493-0.763,1.493-2.288c0-1.45-0.498-2.175-1.493-2.175c-1.006,0-1.509,0.725-1.509,2.175
			C194.155,6.805,194.658,7.568,195.665,7.568z"/>
		<path d="M202.357,7.745V7.38c0.695,0,1.042-0.116,1.042-0.349V0.945c0-0.233-0.347-0.349-1.042-0.349V0.231h5.854l0.291,2.498
			h-0.29c-0.054-0.469-0.119-0.836-0.196-1.101c-0.077-0.265-0.193-0.473-0.35-0.623c-0.155-0.15-0.368-0.256-0.636-0.317
			s-0.637-0.091-1.106-0.091h-1.063c-0.129,0-0.228,0.005-0.295,0.016s-0.122,0.041-0.161,0.091s-0.059,0.131-0.059,0.242v2.863h0.8
			c0.365,0,0.637-0.034,0.813-0.102c0.178-0.068,0.297-0.19,0.36-0.368c0.062-0.177,0.094-0.45,0.094-0.819h0.285v2.938h-0.285
			c0-0.367-0.031-0.639-0.094-0.815c-0.063-0.177-0.183-0.299-0.36-0.367c-0.177-0.068-0.448-0.102-0.813-0.102h-0.8v2.858
			c0,0.232,0.435,0.349,1.305,0.349v0.365H202.357z"/>
		<path d="M209.302,7.745V7.38c0.247,0,0.449-0.02,0.604-0.059c0.156-0.04,0.234-0.136,0.234-0.29V3.996
			c0-0.197-0.026-0.339-0.078-0.427c-0.052-0.088-0.129-0.142-0.231-0.161c-0.102-0.02-0.266-0.03-0.491-0.03V3.013l1.536-0.118
			v4.136c0,0.154,0.068,0.25,0.204,0.29s0.322,0.059,0.559,0.059v0.365H209.302z M209.791,0.978c0-0.147,0.057-0.275,0.169-0.384
			c0.113-0.109,0.243-0.164,0.39-0.164c0.072,0,0.141,0.014,0.207,0.04c0.066,0.027,0.126,0.067,0.18,0.121s0.094,0.114,0.121,0.18
			c0.026,0.066,0.04,0.135,0.04,0.207c0,0.15-0.055,0.282-0.164,0.395c-0.109,0.113-0.237,0.169-0.384,0.169
			c-0.15,0-0.281-0.056-0.392-0.167S209.791,1.131,209.791,0.978z"/>
		<path d="M214.641,7.853c-0.448,0-0.852-0.115-1.211-0.347c-0.36-0.23-0.645-0.541-0.854-0.929
			c-0.209-0.389-0.314-0.803-0.314-1.244c0-0.422,0.094-0.825,0.282-1.206c0.188-0.382,0.454-0.691,0.798-0.93
			c0.344-0.238,0.729-0.357,1.155-0.357c0.33,0,0.617,0.056,0.862,0.169c0.246,0.112,0.446,0.268,0.602,0.464
			c0.156,0.197,0.274,0.434,0.354,0.711c0.081,0.278,0.121,0.572,0.121,0.884c0,0.083-0.03,0.124-0.091,0.124h-3.201v0.14
			c0,0.602,0.124,1.125,0.371,1.568s0.655,0.666,1.225,0.666c0.222,0,0.431-0.053,0.626-0.159c0.195-0.105,0.36-0.245,0.497-0.419
			c0.136-0.173,0.234-0.373,0.295-0.599c0-0.018,0.009-0.033,0.027-0.046c0.018-0.012,0.04-0.019,0.064-0.019h0.097
			c0.021,0,0.042,0.009,0.062,0.027c0.02,0.018,0.029,0.041,0.029,0.07v0.032c-0.068,0.269-0.19,0.508-0.368,0.72
			c-0.177,0.211-0.392,0.377-0.645,0.497C215.17,7.792,214.909,7.853,214.641,7.853z M213.153,4.941h2.546
			c0-0.283-0.039-0.565-0.115-0.846c-0.077-0.281-0.206-0.517-0.386-0.707c-0.181-0.19-0.416-0.285-0.705-0.285
			c-0.286,0-0.531,0.096-0.737,0.287c-0.206,0.192-0.357,0.43-0.456,0.715C213.202,4.391,213.153,4.669,213.153,4.941z"/>
		<path d="M217.079,7.745V7.38c0.247,0,0.449-0.02,0.604-0.059c0.156-0.04,0.234-0.136,0.234-0.29V1.208
			c0-0.193-0.029-0.334-0.086-0.421c-0.057-0.088-0.14-0.142-0.247-0.161c-0.107-0.02-0.276-0.03-0.505-0.03V0.231l1.574-0.118
			v6.918c0,0.154,0.079,0.25,0.236,0.29s0.358,0.059,0.602,0.059v0.365H217.079z"/>
		<path d="M222.335,7.853c-0.319,0-0.617-0.067-0.893-0.201c-0.276-0.135-0.515-0.321-0.715-0.559
			c-0.201-0.238-0.357-0.507-0.468-0.806c-0.111-0.299-0.167-0.604-0.167-0.916c0-0.43,0.104-0.836,0.312-1.219
			s0.493-0.688,0.855-0.916c0.362-0.228,0.762-0.341,1.2-0.341c0.269,0,0.524,0.057,0.767,0.172
			c0.242,0.115,0.449,0.277,0.621,0.489V1.208c0-0.193-0.029-0.334-0.086-0.421c-0.057-0.088-0.14-0.142-0.247-0.161
			c-0.107-0.02-0.276-0.03-0.505-0.03V0.231l1.574-0.118v6.655c0,0.193,0.029,0.334,0.086,0.422c0.057,0.087,0.14,0.141,0.247,0.161
			c0.107,0.02,0.276,0.029,0.505,0.029v0.365l-1.595,0.107V7.138c-0.187,0.222-0.411,0.396-0.672,0.524
			C222.891,7.789,222.619,7.853,222.335,7.853z M222.418,7.589c0.297,0,0.573-0.088,0.827-0.266c0.254-0.177,0.448-0.407,0.58-0.69
			V3.996c-0.083-0.161-0.189-0.306-0.319-0.435c-0.131-0.129-0.279-0.228-0.446-0.298c-0.166-0.069-0.341-0.104-0.523-0.104
			c-0.559,0-0.959,0.219-1.2,0.658c-0.242,0.438-0.363,0.96-0.363,1.565c0,0.365,0.041,0.712,0.124,1.042s0.23,0.606,0.443,0.83
			C221.753,7.478,222.045,7.589,222.418,7.589z"/>
		<path d="M185.717,23.685c-0.786-0.62-1.366-1.415-1.741-2.385s-0.562-2.005-0.562-3.104c0-1.096,0.188-2.128,0.562-3.097
			c0.375-0.968,0.956-1.762,1.741-2.382c0.014-0.014,0.029-0.021,0.043-0.021h0.108c0.054,0,0.081,0.029,0.081,0.086
			c0,0.018-0.007,0.041-0.021,0.07c-0.344,0.333-0.638,0.708-0.884,1.125c-0.245,0.417-0.439,0.851-0.583,1.302
			s-0.247,0.921-0.312,1.41c-0.064,0.489-0.097,0.991-0.097,1.507c0,0.684,0.058,1.346,0.174,1.987
			c0.117,0.641,0.313,1.25,0.591,1.829c0.278,0.578,0.647,1.091,1.109,1.539c0.014,0.029,0.021,0.052,0.021,0.07
			c0,0.057-0.027,0.086-0.081,0.086h-0.108C185.746,23.706,185.731,23.699,185.717,23.685z"/>
		<path d="M186.963,20.945V20.58c0.695,0,1.042-0.116,1.042-0.349v-6.085c0-0.233-0.347-0.349-1.042-0.349v-0.365h6.01l0.285,2.498
			h-0.285c-0.05-0.451-0.118-0.814-0.204-1.09s-0.212-0.491-0.379-0.645c-0.166-0.154-0.387-0.259-0.663-0.314
			c-0.276-0.056-0.648-0.083-1.117-0.083h-1.144c-0.129,0-0.228,0.005-0.295,0.016s-0.122,0.041-0.161,0.091
			s-0.059,0.131-0.059,0.242v2.718h0.833c0.376,0,0.652-0.032,0.83-0.097c0.177-0.064,0.3-0.186,0.368-0.365
			s0.102-0.453,0.102-0.822h0.285v2.933h-0.285c0-0.369-0.034-0.643-0.102-0.822s-0.191-0.301-0.368-0.365
			c-0.178-0.064-0.454-0.097-0.83-0.097h-0.833v3.002c0,0.111,0.02,0.191,0.059,0.242s0.093,0.081,0.161,0.091
			s0.167,0.016,0.295,0.016h1.219c0.516,0,0.927-0.041,1.232-0.124c0.307-0.083,0.545-0.217,0.717-0.406
			c0.172-0.188,0.301-0.431,0.387-0.73c0.086-0.299,0.168-0.709,0.247-1.232h0.29l-0.441,2.857H186.963z"/>
		<path d="M196.508,20.956l-1.584-4.061c-0.072-0.147-0.174-0.238-0.309-0.274c-0.134-0.036-0.317-0.054-0.55-0.054v-0.365h2.245
			v0.365c-0.405,0-0.607,0.088-0.607,0.263c0,0.036,0.003,0.061,0.011,0.075l1.23,3.147l1.112-2.847
			c0.021-0.057,0.032-0.12,0.032-0.188c0-0.14-0.05-0.25-0.15-0.331c-0.1-0.08-0.218-0.121-0.354-0.121v-0.365h1.762v0.365
			c-0.222,0-0.419,0.056-0.591,0.167s-0.297,0.265-0.376,0.462l-1.477,3.76c-0.04,0.064-0.089,0.097-0.15,0.097h-0.091
			C196.597,21.053,196.547,21.021,196.508,20.956z"/>
		<path d="M202.228,21.053c-0.448,0-0.852-0.115-1.211-0.347c-0.36-0.23-0.645-0.541-0.854-0.929
			c-0.209-0.389-0.314-0.803-0.314-1.244c0-0.422,0.094-0.825,0.282-1.206c0.188-0.382,0.454-0.691,0.798-0.93
			c0.344-0.238,0.729-0.357,1.155-0.357c0.33,0,0.617,0.056,0.862,0.169c0.246,0.112,0.446,0.268,0.602,0.464
			c0.156,0.197,0.274,0.434,0.354,0.711c0.081,0.278,0.121,0.572,0.121,0.884c0,0.083-0.03,0.124-0.091,0.124h-3.201v0.14
			c0,0.602,0.124,1.125,0.371,1.568s0.655,0.666,1.225,0.666c0.222,0,0.431-0.053,0.626-0.159c0.195-0.105,0.36-0.245,0.497-0.419
			c0.136-0.173,0.234-0.373,0.295-0.599c0-0.018,0.009-0.033,0.027-0.046c0.018-0.012,0.04-0.019,0.064-0.019h0.097
			c0.021,0,0.042,0.009,0.062,0.027c0.02,0.018,0.029,0.041,0.029,0.07v0.032c-0.068,0.269-0.19,0.508-0.368,0.72
			c-0.177,0.211-0.392,0.377-0.645,0.497C202.757,20.993,202.497,21.053,202.228,21.053z M200.74,18.142h2.546
			c0-0.283-0.039-0.565-0.115-0.846c-0.077-0.281-0.206-0.517-0.386-0.707c-0.181-0.19-0.416-0.285-0.705-0.285
			c-0.286,0-0.531,0.096-0.737,0.287c-0.206,0.192-0.357,0.43-0.456,0.715C200.79,17.591,200.74,17.87,200.74,18.142z"/>
		<path d="M204.656,20.945V20.58c0.247,0,0.449-0.02,0.604-0.059c0.156-0.04,0.234-0.136,0.234-0.29v-3.035
			c0-0.197-0.029-0.339-0.086-0.427c-0.057-0.088-0.14-0.142-0.247-0.161c-0.107-0.02-0.276-0.03-0.505-0.03v-0.365l1.542-0.118
			v1.08c0.086-0.208,0.208-0.394,0.365-0.559s0.337-0.293,0.54-0.384c0.202-0.092,0.418-0.137,0.647-0.137
			c0.501,0,0.875,0.123,1.123,0.368c0.247,0.246,0.371,0.617,0.371,1.115v2.653c0,0.154,0.079,0.25,0.236,0.29
			s0.358,0.059,0.602,0.059v0.365h-2.433V20.58c0.247,0,0.448-0.02,0.604-0.059c0.155-0.04,0.233-0.136,0.233-0.29V17.61
			c0-0.365-0.055-0.665-0.164-0.9c-0.109-0.234-0.325-0.352-0.647-0.352c-0.283,0-0.533,0.081-0.75,0.242
			c-0.216,0.161-0.383,0.374-0.499,0.636c-0.117,0.264-0.175,0.531-0.175,0.803v2.191c0,0.154,0.079,0.25,0.236,0.29
			s0.358,0.059,0.602,0.059v0.365H204.656z"/>
		<path d="M210.983,23.706c-0.05,0-0.075-0.029-0.075-0.086c0-0.025,0.011-0.048,0.032-0.07c0.669-0.655,1.147-1.443,1.431-2.363
			c0.285-0.92,0.427-1.917,0.427-2.992c0-0.512-0.03-1.011-0.091-1.496c-0.061-0.485-0.162-0.954-0.304-1.407
			c-0.141-0.453-0.333-0.888-0.574-1.305c-0.242-0.417-0.538-0.796-0.889-1.136c-0.021-0.021-0.032-0.045-0.032-0.07
			c0-0.057,0.025-0.086,0.075-0.086h0.107c0.011,0,0.03,0.007,0.059,0.021c0.777,0.62,1.353,1.414,1.727,2.382
			c0.375,0.969,0.562,2.001,0.562,3.097c0,1.099-0.187,2.134-0.562,3.104c-0.374,0.97-0.95,1.765-1.727,2.385
			c-0.029,0.014-0.048,0.021-0.059,0.021H210.983z"/>
	</g>
	<g>
		<path d="M261.674,7.745V7.379c0.695,0,1.042-0.116,1.042-0.349V0.945c0-0.233-0.347-0.349-1.042-0.349V0.23h3.287
			c0.308,0,0.627,0.041,0.959,0.124c0.331,0.083,0.639,0.205,0.924,0.368c0.284,0.163,0.517,0.372,0.698,0.628
			c0.181,0.256,0.271,0.547,0.271,0.873c0,0.444-0.19,0.823-0.569,1.136c-0.379,0.313-0.813,0.529-1.3,0.647
			c0.226,0.079,0.434,0.185,0.625,0.317c0.192,0.132,0.35,0.292,0.476,0.481c0.125,0.188,0.204,0.398,0.236,0.631l0.134,0.978
			c0.043,0.301,0.08,0.525,0.11,0.674c0.031,0.149,0.095,0.29,0.193,0.425c0.099,0.134,0.247,0.201,0.443,0.201
			c0.222,0,0.39-0.104,0.502-0.314c0.113-0.209,0.169-0.439,0.169-0.69c0-0.057,0.034-0.086,0.102-0.086h0.097
			c0.057,0,0.086,0.038,0.086,0.113c0,0.193-0.037,0.387-0.11,0.58c-0.073,0.193-0.183,0.352-0.327,0.476
			c-0.146,0.123-0.318,0.185-0.519,0.185c-0.508,0-0.938-0.133-1.289-0.4c-0.351-0.267-0.526-0.647-0.526-1.142V5.457
			c0-0.247-0.063-0.474-0.19-0.68c-0.127-0.206-0.299-0.368-0.516-0.486c-0.217-0.118-0.447-0.177-0.69-0.177h-1.321V7.03
			c0,0.15,0.104,0.246,0.314,0.288c0.209,0.041,0.454,0.062,0.733,0.062v0.365H261.674z M263.629,3.851h1.203
			c1.275,0,1.912-0.542,1.912-1.627c0-0.394-0.079-0.712-0.236-0.953c-0.158-0.242-0.377-0.415-0.658-0.519
			c-0.281-0.104-0.62-0.156-1.018-0.156h-0.682c-0.129,0-0.228,0.005-0.295,0.016s-0.123,0.041-0.164,0.091
			c-0.041,0.05-0.062,0.131-0.062,0.242V3.851z"/>
		<path d="M271.842,7.852c-0.448,0-0.852-0.115-1.211-0.347c-0.36-0.23-0.645-0.541-0.854-0.929
			c-0.209-0.389-0.314-0.803-0.314-1.244c0-0.422,0.094-0.825,0.282-1.206c0.188-0.382,0.454-0.691,0.798-0.93
			c0.344-0.238,0.729-0.357,1.155-0.357c0.33,0,0.617,0.056,0.862,0.169c0.246,0.112,0.446,0.268,0.602,0.464
			c0.156,0.197,0.274,0.434,0.354,0.711c0.081,0.278,0.121,0.572,0.121,0.884c0,0.083-0.03,0.124-0.091,0.124h-3.201v0.14
			c0,0.602,0.124,1.125,0.371,1.568s0.655,0.666,1.225,0.666c0.222,0,0.431-0.053,0.626-0.159c0.195-0.105,0.36-0.245,0.497-0.419
			c0.136-0.173,0.234-0.373,0.295-0.599c0-0.018,0.009-0.033,0.027-0.046c0.018-0.012,0.04-0.019,0.064-0.019h0.097
			c0.021,0,0.042,0.009,0.062,0.027c0.02,0.018,0.029,0.041,0.029,0.07v0.032c-0.068,0.269-0.19,0.508-0.368,0.72
			c-0.177,0.211-0.392,0.377-0.645,0.497C272.371,7.792,272.11,7.852,271.842,7.852z M270.354,4.941h2.546
			c0-0.283-0.039-0.565-0.115-0.846c-0.077-0.281-0.206-0.517-0.386-0.707c-0.181-0.19-0.416-0.285-0.705-0.285
			c-0.286,0-0.531,0.096-0.737,0.287c-0.206,0.192-0.357,0.43-0.456,0.715C270.403,4.39,270.354,4.669,270.354,4.941z"/>
		<path d="M274.307,7.788V5.951c0-0.043,0.025-0.064,0.075-0.064h0.129c0.04,0,0.066,0.021,0.081,0.064
			c0.208,1.092,0.698,1.638,1.472,1.638c0.226,0,0.43-0.033,0.612-0.099c0.183-0.066,0.329-0.173,0.438-0.32
			c0.109-0.147,0.164-0.333,0.164-0.559c0-0.165-0.044-0.313-0.131-0.446c-0.088-0.132-0.203-0.243-0.344-0.33
			c-0.142-0.088-0.291-0.148-0.449-0.18l-0.73-0.145c-0.354-0.079-0.663-0.232-0.924-0.459c-0.261-0.228-0.392-0.515-0.392-0.862
			c0-0.465,0.168-0.807,0.505-1.023c0.336-0.216,0.754-0.325,1.251-0.325c0.39,0,0.718,0.109,0.983,0.328l0.306-0.306
			c0.014-0.014,0.032-0.021,0.054-0.021h0.064c0.054,0,0.081,0.021,0.081,0.064v1.493c0,0.054-0.027,0.081-0.081,0.081h-0.129
			c-0.054,0-0.081-0.027-0.081-0.081c0-0.258-0.046-0.485-0.137-0.682c-0.092-0.197-0.23-0.352-0.417-0.465
			c-0.186-0.112-0.408-0.169-0.666-0.169c-0.33,0-0.611,0.062-0.846,0.186c-0.234,0.123-0.352,0.335-0.352,0.636
			c0,0.211,0.085,0.382,0.255,0.513c0.17,0.13,0.375,0.225,0.615,0.282l0.725,0.14c0.387,0.086,0.712,0.26,0.978,0.521
			s0.397,0.583,0.397,0.967c0,0.34-0.077,0.626-0.231,0.856c-0.154,0.231-0.362,0.4-0.623,0.508s-0.561,0.161-0.897,0.161
			c-0.491,0-0.883-0.165-1.176-0.494L274.5,7.831c-0.014,0.014-0.029,0.021-0.043,0.021h-0.075
			C274.332,7.852,274.307,7.831,274.307,7.788z"/>
		<path d="M279.356,6.434V3.996c0-0.197-0.029-0.339-0.086-0.427c-0.057-0.088-0.14-0.142-0.247-0.161
			c-0.107-0.02-0.276-0.03-0.505-0.03V3.013l1.595-0.118v3.507v0.021c0,0.29,0.021,0.516,0.062,0.677
			c0.042,0.161,0.131,0.283,0.269,0.365c0.138,0.083,0.352,0.124,0.642,0.124c0.39,0,0.698-0.167,0.924-0.502
			c0.226-0.334,0.338-0.713,0.338-1.136V3.996c0-0.197-0.029-0.339-0.086-0.427c-0.057-0.088-0.14-0.142-0.247-0.161
			c-0.107-0.02-0.276-0.03-0.505-0.03V3.013l1.595-0.118v3.873c0,0.193,0.029,0.334,0.086,0.422c0.057,0.087,0.141,0.141,0.25,0.161
			c0.109,0.02,0.277,0.029,0.502,0.029v0.365l-1.574,0.107V6.917c-0.129,0.279-0.312,0.505-0.551,0.677
			c-0.238,0.172-0.505,0.258-0.803,0.258c-0.526,0-0.935-0.111-1.225-0.333S279.356,6.936,279.356,6.434z"/>
		<path d="M284.512,7.745V7.379c0.247,0,0.449-0.02,0.604-0.059c0.156-0.04,0.234-0.136,0.234-0.29V1.208
			c0-0.193-0.029-0.334-0.086-0.421c-0.057-0.088-0.14-0.142-0.247-0.161c-0.107-0.02-0.276-0.03-0.505-0.03V0.23l1.574-0.118V7.03
			c0,0.154,0.079,0.25,0.236,0.29s0.358,0.059,0.602,0.059v0.365H284.512z"/>
		<path d="M288.277,6.434V3.367h-0.913V3.104c0.476,0,0.826-0.222,1.05-0.666c0.224-0.444,0.335-0.931,0.335-1.461h0.285v2.025
			h1.534v0.365h-1.534v3.035c0,0.304,0.053,0.575,0.159,0.811c0.106,0.236,0.292,0.354,0.558,0.354c0.255,0,0.438-0.123,0.55-0.368
			c0.111-0.246,0.167-0.511,0.167-0.798v-0.65h0.285v0.682c0,0.218-0.04,0.438-0.121,0.658c-0.08,0.22-0.201,0.402-0.362,0.545
			s-0.356,0.215-0.585,0.215c-0.297,0-0.55-0.058-0.76-0.175c-0.209-0.116-0.37-0.282-0.48-0.497S288.277,6.717,288.277,6.434z"/>
		<path d="M291.683,7.745V7.379c0.247,0,0.449-0.02,0.604-0.059c0.156-0.04,0.234-0.136,0.234-0.29V3.996
			c0-0.197-0.026-0.339-0.078-0.427c-0.052-0.088-0.129-0.142-0.231-0.161c-0.102-0.02-0.266-0.03-0.491-0.03V3.013l1.536-0.118
			V7.03c0,0.154,0.068,0.25,0.204,0.29s0.322,0.059,0.559,0.059v0.365H291.683z M292.171,0.977c0-0.147,0.057-0.275,0.169-0.384
			c0.113-0.109,0.243-0.164,0.39-0.164c0.072,0,0.141,0.014,0.207,0.04c0.066,0.027,0.126,0.067,0.18,0.121s0.094,0.114,0.121,0.18
			c0.026,0.066,0.04,0.135,0.04,0.207c0,0.15-0.055,0.282-0.164,0.395c-0.109,0.113-0.237,0.169-0.384,0.169
			c-0.15,0-0.281-0.056-0.392-0.167S292.171,1.131,292.171,0.977z"/>
		<path d="M294.664,7.745V7.379c0.247,0,0.449-0.02,0.604-0.059c0.156-0.04,0.234-0.136,0.234-0.29V3.996
			c0-0.197-0.029-0.339-0.086-0.427c-0.057-0.088-0.14-0.142-0.247-0.161c-0.107-0.02-0.276-0.03-0.505-0.03V3.013l1.542-0.118v1.08
			c0.086-0.208,0.208-0.394,0.365-0.559s0.337-0.293,0.54-0.384c0.202-0.092,0.418-0.137,0.647-0.137
			c0.501,0,0.875,0.123,1.123,0.368c0.247,0.246,0.371,0.617,0.371,1.115V7.03c0,0.154,0.079,0.25,0.236,0.29
			s0.358,0.059,0.602,0.059v0.365h-2.433V7.379c0.247,0,0.448-0.02,0.604-0.059c0.155-0.04,0.233-0.136,0.233-0.29V4.409
			c0-0.365-0.055-0.665-0.164-0.9c-0.109-0.234-0.325-0.352-0.647-0.352c-0.283,0-0.533,0.081-0.75,0.242
			c-0.216,0.161-0.383,0.374-0.499,0.636c-0.117,0.264-0.175,0.531-0.175,0.803V7.03c0,0.154,0.079,0.25,0.236,0.29
			s0.358,0.059,0.602,0.059v0.365H294.664z"/>
		<path d="M300.615,8.604c0-0.261,0.094-0.491,0.284-0.69c0.19-0.198,0.419-0.335,0.688-0.411c-0.308-0.208-0.462-0.526-0.462-0.956
			c0-0.326,0.113-0.63,0.338-0.913c-0.329-0.322-0.494-0.7-0.494-1.133c0-0.301,0.082-0.575,0.247-0.822s0.381-0.439,0.649-0.578
			c0.268-0.138,0.551-0.207,0.848-0.207c0.443,0,0.82,0.132,1.131,0.397c0.144-0.161,0.321-0.288,0.533-0.381s0.424-0.14,0.635-0.14
			c0.102,0,0.191,0.025,0.272,0.075s0.145,0.117,0.191,0.201c0.046,0.084,0.069,0.173,0.069,0.266c0,0.086-0.029,0.159-0.089,0.217
			c-0.06,0.06-0.134,0.089-0.224,0.089c-0.084,0-0.156-0.03-0.217-0.091c-0.062-0.061-0.092-0.132-0.092-0.215
			c0-0.079,0.014-0.142,0.043-0.188c0.008-0.007,0.014-0.014,0.021-0.021s0.015-0.014,0.021-0.021l0.061-0.048h-0.06
			c-0.179,0-0.354,0.036-0.526,0.107s-0.326,0.172-0.462,0.301c0.288,0.312,0.433,0.664,0.433,1.058
			c0,0.301-0.082,0.575-0.247,0.822s-0.382,0.441-0.65,0.583c-0.269,0.142-0.55,0.212-0.843,0.212c-0.388,0-0.746-0.115-1.075-0.344
			c-0.11,0.168-0.165,0.342-0.165,0.521c0,0.197,0.061,0.367,0.182,0.51c0.122,0.143,0.281,0.215,0.479,0.215h0.892
			c0.437,0,0.827,0.04,1.171,0.118s0.631,0.235,0.859,0.47c0.229,0.234,0.344,0.566,0.344,0.996c0,0.322-0.133,0.587-0.397,0.795
			s-0.583,0.36-0.953,0.457C303.679,9.952,303.334,10,303.016,10c-0.326,0-0.675-0.048-1.047-0.145
			c-0.373-0.097-0.691-0.249-0.957-0.457C300.747,9.191,300.615,8.926,300.615,8.604z M301.2,8.604c0,0.244,0.101,0.45,0.3,0.62
			c0.201,0.17,0.443,0.296,0.73,0.379c0.285,0.083,0.547,0.124,0.782,0.124c0.232,0,0.491-0.041,0.778-0.124
			c0.285-0.083,0.527-0.208,0.727-0.379c0.198-0.17,0.297-0.376,0.297-0.62c0-0.279-0.098-0.487-0.295-0.623
			c-0.196-0.136-0.424-0.222-0.684-0.258c-0.259-0.036-0.537-0.054-0.834-0.054h-0.869c-0.254,0-0.473,0.09-0.656,0.271
			C301.293,8.122,301.2,8.343,301.2,8.604z M302.712,5.843c0.625,0,0.938-0.448,0.938-1.343c0-0.387-0.067-0.706-0.204-0.956
			c-0.135-0.25-0.38-0.376-0.733-0.376c-0.353,0-0.599,0.125-0.736,0.376S301.77,4.114,301.77,4.5
			C301.77,5.396,302.084,5.843,302.712,5.843z"/>
		<path d="M256.701,21.079l-2.61-6.956c-0.072-0.147-0.19-0.238-0.354-0.274s-0.379-0.054-0.645-0.054v-0.365h2.782v0.365
			c-0.544,0-0.816,0.095-0.816,0.285v0.054l2.17,5.752l2.057-5.441c0.014-0.064,0.021-0.113,0.021-0.145
			c0-0.115-0.037-0.209-0.11-0.285c-0.073-0.075-0.167-0.131-0.282-0.167s-0.226-0.054-0.333-0.054v-0.365h2.175v0.365
			c-0.258,0-0.484,0.051-0.68,0.153c-0.195,0.103-0.339,0.264-0.432,0.486l-2.492,6.644c-0.032,0.064-0.084,0.097-0.156,0.097
			h-0.145C256.776,21.176,256.726,21.144,256.701,21.079z"/>
		<path d="M261.304,20.945V20.58c0.247,0,0.449-0.02,0.604-0.059c0.156-0.04,0.234-0.136,0.234-0.29v-3.035
			c0-0.197-0.026-0.339-0.078-0.427c-0.052-0.088-0.129-0.142-0.231-0.161c-0.102-0.02-0.266-0.03-0.491-0.03v-0.365l1.536-0.118
			v4.136c0,0.154,0.068,0.25,0.204,0.29s0.322,0.059,0.559,0.059v0.365H261.304z M261.792,14.177c0-0.147,0.057-0.275,0.169-0.384
			c0.113-0.109,0.243-0.164,0.39-0.164c0.072,0,0.141,0.014,0.207,0.04c0.066,0.027,0.126,0.067,0.18,0.121s0.094,0.114,0.121,0.18
			c0.026,0.066,0.04,0.135,0.04,0.207c0,0.15-0.055,0.282-0.164,0.395c-0.109,0.113-0.237,0.169-0.384,0.169
			c-0.15,0-0.281-0.056-0.392-0.167S261.792,14.331,261.792,14.177z"/>
		<path d="M266.56,21.052c-0.319,0-0.617-0.067-0.893-0.201c-0.276-0.135-0.515-0.321-0.715-0.559
			c-0.201-0.238-0.357-0.507-0.468-0.806c-0.111-0.299-0.167-0.604-0.167-0.916c0-0.43,0.104-0.836,0.312-1.219
			s0.493-0.688,0.855-0.916c0.362-0.228,0.762-0.341,1.2-0.341c0.269,0,0.524,0.057,0.767,0.172
			c0.242,0.115,0.449,0.277,0.621,0.489v-2.347c0-0.193-0.029-0.334-0.086-0.421c-0.057-0.088-0.14-0.142-0.247-0.161
			c-0.107-0.02-0.276-0.03-0.505-0.03v-0.365l1.574-0.118v6.655c0,0.193,0.029,0.334,0.086,0.422
			c0.057,0.087,0.14,0.141,0.247,0.161c0.107,0.02,0.276,0.029,0.505,0.029v0.365l-1.595,0.107v-0.714
			c-0.187,0.222-0.411,0.396-0.672,0.524C267.116,20.989,266.843,21.052,266.56,21.052z M266.643,20.789
			c0.297,0,0.573-0.088,0.827-0.266c0.254-0.177,0.448-0.407,0.58-0.69v-2.637c-0.083-0.161-0.189-0.306-0.319-0.435
			c-0.131-0.129-0.279-0.228-0.446-0.298c-0.166-0.069-0.341-0.104-0.523-0.104c-0.559,0-0.959,0.219-1.2,0.658
			c-0.242,0.438-0.363,0.96-0.363,1.565c0,0.365,0.041,0.712,0.124,1.042s0.23,0.606,0.443,0.83
			C265.978,20.677,266.27,20.789,266.643,20.789z"/>
		<path d="M272.626,21.052c-0.448,0-0.852-0.115-1.211-0.347c-0.36-0.23-0.645-0.541-0.854-0.929
			c-0.209-0.389-0.314-0.803-0.314-1.244c0-0.422,0.094-0.825,0.282-1.206c0.188-0.382,0.454-0.691,0.798-0.93
			c0.344-0.238,0.729-0.357,1.155-0.357c0.33,0,0.617,0.056,0.862,0.169c0.246,0.112,0.446,0.268,0.602,0.464
			c0.156,0.197,0.274,0.434,0.354,0.711c0.081,0.278,0.121,0.572,0.121,0.884c0,0.083-0.03,0.124-0.091,0.124h-3.201v0.14
			c0,0.602,0.124,1.125,0.371,1.568s0.655,0.666,1.225,0.666c0.222,0,0.431-0.053,0.626-0.159c0.195-0.105,0.36-0.245,0.497-0.419
			c0.136-0.173,0.234-0.373,0.295-0.599c0-0.018,0.009-0.033,0.027-0.046c0.018-0.012,0.04-0.019,0.064-0.019h0.097
			c0.021,0,0.042,0.009,0.062,0.027c0.02,0.018,0.029,0.041,0.029,0.07v0.032c-0.068,0.269-0.19,0.508-0.368,0.72
			c-0.177,0.211-0.392,0.377-0.645,0.497C273.155,20.992,272.895,21.052,272.626,21.052z M271.138,18.141h2.546
			c0-0.283-0.039-0.565-0.115-0.846c-0.077-0.281-0.206-0.517-0.386-0.707c-0.181-0.19-0.416-0.285-0.705-0.285
			c-0.286,0-0.531,0.096-0.737,0.287c-0.206,0.192-0.357,0.43-0.456,0.715C271.188,17.59,271.138,17.869,271.138,18.141z"/>
		<path d="M277.422,21.052c-0.437,0-0.838-0.111-1.203-0.333s-0.654-0.522-0.867-0.899c-0.213-0.378-0.32-0.784-0.32-1.217
			c0-0.326,0.059-0.644,0.177-0.953c0.118-0.31,0.287-0.586,0.505-0.83s0.473-0.434,0.763-0.572c0.29-0.138,0.605-0.207,0.945-0.207
			c0.444,0,0.848,0.119,1.211,0.357c0.364,0.238,0.648,0.556,0.854,0.954c0.206,0.397,0.309,0.814,0.309,1.251
			c0,0.433-0.105,0.839-0.317,1.217c-0.211,0.377-0.498,0.677-0.859,0.899S277.859,21.052,277.422,21.052z M277.422,20.768
			c0.996,0,1.493-0.763,1.493-2.288c0-1.45-0.498-2.175-1.493-2.175c-1.006,0-1.509,0.725-1.509,2.175
			C275.913,20.005,276.416,20.768,277.422,20.768z"/>
		<path d="M284.115,20.945V20.58c0.695,0,1.042-0.116,1.042-0.349v-6.085c0-0.233-0.347-0.349-1.042-0.349v-0.365h5.854l0.291,2.498
			h-0.29c-0.054-0.469-0.119-0.836-0.196-1.101c-0.077-0.265-0.193-0.473-0.35-0.623c-0.155-0.15-0.368-0.256-0.636-0.317
			s-0.637-0.091-1.106-0.091h-1.063c-0.129,0-0.228,0.005-0.295,0.016s-0.122,0.041-0.161,0.091s-0.059,0.131-0.059,0.242v2.863h0.8
			c0.365,0,0.637-0.034,0.813-0.102c0.178-0.068,0.297-0.19,0.36-0.368c0.062-0.177,0.094-0.45,0.094-0.819h0.285v2.938h-0.285
			c0-0.367-0.031-0.639-0.094-0.815c-0.063-0.177-0.183-0.299-0.36-0.367c-0.177-0.068-0.448-0.102-0.813-0.102h-0.8v2.858
			c0,0.232,0.435,0.349,1.305,0.349v0.365H284.115z"/>
		<path d="M291.006,20.945V20.58c0.247,0,0.449-0.02,0.604-0.059c0.156-0.04,0.234-0.136,0.234-0.29v-3.035
			c0-0.197-0.029-0.339-0.086-0.427c-0.057-0.088-0.14-0.142-0.247-0.161c-0.107-0.02-0.276-0.03-0.505-0.03v-0.365l1.52-0.118
			v1.133c0.118-0.333,0.286-0.605,0.502-0.816c0.217-0.211,0.486-0.317,0.809-0.317c0.129,0,0.251,0.028,0.368,0.083
			c0.116,0.055,0.212,0.135,0.287,0.239s0.113,0.217,0.113,0.338c0,0.132-0.042,0.243-0.126,0.33
			c-0.084,0.088-0.192,0.132-0.325,0.132c-0.086,0-0.164-0.021-0.234-0.062c-0.069-0.042-0.125-0.097-0.166-0.167
			c-0.042-0.069-0.062-0.147-0.062-0.233c0-0.179,0.073-0.312,0.22-0.397h-0.075c-0.301,0-0.546,0.109-0.736,0.328
			s-0.324,0.485-0.403,0.8s-0.118,0.618-0.118,0.908v1.837c0,0.233,0.349,0.349,1.047,0.349v0.365H291.006z"/>
		<path d="M295.362,19.887c0-0.336,0.1-0.623,0.299-0.859c0.199-0.236,0.457-0.423,0.774-0.561c0.317-0.138,0.647-0.236,0.987-0.293
			c0.341-0.057,0.671-0.086,0.99-0.086v-0.478c0-0.211-0.047-0.419-0.14-0.623s-0.227-0.369-0.399-0.494s-0.368-0.188-0.587-0.188
			c-0.227,0-0.444,0.039-0.652,0.115c-0.208,0.077-0.377,0.196-0.507,0.357h0.038c0.086,0,0.167,0.021,0.24,0.062
			c0.074,0.042,0.131,0.098,0.173,0.169s0.062,0.156,0.062,0.252c0,0.129-0.045,0.24-0.135,0.333c-0.09,0.093-0.203,0.14-0.34,0.14
			c-0.141,0-0.258-0.046-0.351-0.14c-0.094-0.093-0.141-0.204-0.141-0.333c0-0.387,0.167-0.687,0.5-0.899
			c0.333-0.213,0.703-0.32,1.108-0.32c0.298,0,0.594,0.062,0.888,0.188s0.534,0.306,0.721,0.542s0.28,0.505,0.28,0.806v2.476
			c0,0.143,0.031,0.276,0.094,0.4c0.062,0.123,0.158,0.185,0.287,0.185c0.132,0,0.23-0.059,0.293-0.177
			c0.062-0.118,0.094-0.254,0.094-0.408V19.35h0.285v0.704c0,0.168-0.04,0.324-0.121,0.467c-0.08,0.143-0.192,0.259-0.334,0.346
			c-0.143,0.088-0.295,0.132-0.456,0.132c-0.207,0-0.396-0.087-0.565-0.261c-0.17-0.173-0.254-0.368-0.254-0.583
			c-0.086,0.186-0.204,0.346-0.353,0.481c-0.149,0.134-0.317,0.237-0.505,0.309c-0.188,0.072-0.381,0.107-0.579,0.107
			c-0.423,0-0.812-0.098-1.165-0.293C295.539,20.564,295.362,20.273,295.362,19.887z M296.189,19.887
			c0,0.247,0.096,0.459,0.288,0.636c0.192,0.178,0.416,0.266,0.67,0.266c0.229,0,0.442-0.061,0.638-0.183
			c0.196-0.122,0.349-0.284,0.46-0.486c0.111-0.203,0.167-0.418,0.167-0.647v-1.144c-0.345,0-0.688,0.056-1.028,0.167
			s-0.625,0.283-0.854,0.516S296.189,19.536,296.189,19.887z"/>
		<path d="M300.604,20.945V20.58c0.248,0,0.449-0.02,0.604-0.059c0.156-0.04,0.233-0.136,0.233-0.29v-3.035
			c0-0.197-0.028-0.339-0.086-0.427c-0.057-0.088-0.139-0.142-0.246-0.161c-0.107-0.02-0.276-0.03-0.506-0.03v-0.365l1.542-0.118
			v1.08c0.086-0.208,0.208-0.394,0.365-0.559s0.337-0.293,0.54-0.384c0.202-0.092,0.418-0.137,0.646-0.137
			c0.85,0,1.336,0.344,1.461,1.031c0.144-0.304,0.352-0.552,0.623-0.744c0.272-0.192,0.575-0.288,0.908-0.288
			c0.999,0,1.498,0.494,1.498,1.482v2.653c0,0.154,0.078,0.25,0.234,0.29c0.155,0.04,0.355,0.059,0.599,0.059v0.365h-2.423V20.58
			c0.244,0,0.443-0.02,0.6-0.059c0.155-0.04,0.233-0.136,0.233-0.29v-2.621c0-0.365-0.055-0.665-0.164-0.9
			c-0.109-0.234-0.325-0.352-0.649-0.352c-0.283,0-0.533,0.081-0.75,0.242c-0.218,0.161-0.385,0.374-0.502,0.636
			c-0.116,0.264-0.174,0.531-0.174,0.803v2.191c0,0.154,0.078,0.25,0.236,0.29c0.157,0.04,0.357,0.059,0.602,0.059v0.365h-2.434
			V20.58c0.247,0,0.448-0.02,0.604-0.059c0.155-0.04,0.233-0.136,0.233-0.29v-2.621c0-0.365-0.055-0.665-0.164-0.9
			c-0.109-0.234-0.324-0.352-0.646-0.352c-0.283,0-0.533,0.081-0.75,0.242s-0.383,0.374-0.499,0.636
			c-0.116,0.264-0.175,0.531-0.175,0.803v2.191c0,0.154,0.078,0.25,0.236,0.29s0.357,0.059,0.602,0.059v0.365H300.604z"/>
		<path d="M311.938,21.052c-0.448,0-0.852-0.115-1.211-0.347c-0.361-0.23-0.645-0.541-0.855-0.929
			c-0.209-0.389-0.313-0.803-0.313-1.244c0-0.422,0.095-0.825,0.282-1.206c0.188-0.382,0.453-0.691,0.797-0.93
			c0.344-0.238,0.729-0.357,1.155-0.357c0.329,0,0.616,0.056,0.862,0.169c0.245,0.112,0.445,0.268,0.602,0.464
			s0.273,0.434,0.354,0.711c0.082,0.278,0.121,0.572,0.121,0.884c0,0.083-0.029,0.124-0.091,0.124h-3.201v0.14
			c0,0.602,0.124,1.125,0.37,1.568c0.248,0.444,0.656,0.666,1.225,0.666c0.223,0,0.432-0.053,0.627-0.159
			c0.194-0.105,0.359-0.245,0.496-0.419c0.137-0.173,0.234-0.373,0.295-0.599c0-0.018,0.01-0.033,0.027-0.046
			c0.018-0.012,0.039-0.019,0.064-0.019h0.097c0.021,0,0.042,0.009,0.062,0.027s0.029,0.041,0.029,0.07v0.032
			c-0.067,0.269-0.189,0.508-0.367,0.72s-0.393,0.377-0.645,0.497C312.467,20.992,312.205,21.052,311.938,21.052z M310.449,18.141
			h2.546c0-0.283-0.038-0.565-0.115-0.846c-0.077-0.281-0.206-0.517-0.386-0.707c-0.181-0.19-0.416-0.285-0.705-0.285
			c-0.285,0-0.531,0.096-0.736,0.287c-0.206,0.192-0.357,0.43-0.456,0.715C310.498,17.59,310.449,17.869,310.449,18.141z"/>
	</g>
</g>
</svg>
